<?xml version="1.0" standalone="no"?>
<!DOCTYPE svg PUBLIC "-//W3C//DTD SVG 20010904//EN"
 "http://www.w3.org/TR/2001/REC-SVG-20010904/DTD/svg10.dtd">
<svg version="1.0" xmlns="http://www.w3.org/2000/svg"
 width="1024.000000pt" height="1024.000000pt" viewBox="0 0 1024.000000 1024.000000"
 preserveAspectRatio="xMidYMid meet">

<g transform="translate(0.000000,1024.000000) scale(0.100000,-0.100000)"
fill="#000000" stroke="none">
<path d="M4985 9636 c-38 -17 -63 -45 -74 -84 -7 -21 4 -127 35 -363 24 -184
44 -346 44 -361 0 -16 4 -28 8 -28 5 0 7 12 5 28 -2 15 -11 95 -22 177 -10 83
-19 157 -20 165 -1 8 -8 58 -16 110 -8 52 -18 136 -21 187 -10 142 12 163 175
169 51 1 96 5 99 8 12 12 -184 5 -213 -8z"/>
<path d="M5236 9626 c41 -18 76 -57 71 -78 -3 -9 -1 -18 5 -20 10 -4 -4 -152
-42 -453 -10 -82 -22 -184 -26 -225 -3 -41 -11 -84 -16 -95 -8 -18 -8 -19 5
-3 8 10 19 64 26 125 6 60 18 162 26 228 44 357 48 418 32 458 -16 36 -67 77
-97 77 -8 -1 -1 -7 16 -14z"/>
<path d="M5256 9245 c-9 -26 -7 -32 5 -12 6 10 9 21 6 23 -2 3 -7 -2 -11 -11z"/>
<path d="M4698 9217 c-27 -5 -48 -13 -48 -17 0 -5 15 -3 34 2 51 16 62 7 70
-54 4 -29 9 -69 13 -89 l5 -37 -73 -16 c-41 -10 -87 -24 -104 -32 -16 -8 -21
-12 -10 -8 57 17 170 44 185 44 15 0 15 7 -1 105 -9 58 -18 107 -20 109 -2 1
-25 -2 -51 -7z"/>
<path d="M5500 9220 c8 -5 23 -10 33 -10 9 0 17 -4 17 -10 0 -5 7 -7 17 -3 14
6 14 7 -3 13 -41 15 -80 21 -64 10z"/>
<path d="M5466 9121 c-9 -49 -16 -93 -16 -99 0 -5 17 -13 37 -17 21 -4 73 -18
116 -32 43 -13 81 -22 85 -19 3 3 -2 6 -11 6 -8 0 -22 6 -29 13 -7 6 -22 13
-33 14 -52 5 -155 36 -155 46 0 7 9 49 19 95 10 45 15 82 11 82 -4 0 -15 -40
-24 -89z"/>
<path d="M4268 9082 c-191 -64 -345 -118 -343 -120 2 -2 34 5 70 17 36 12 71
18 78 15 7 -4 8 -3 4 2 -8 8 406 154 448 157 11 1 22 5 25 8 3 3 25 13 50 22
25 8 38 16 30 16 -8 0 -171 -53 -362 -117z"/>
<path d="M5623 9182 c21 -10 36 -20 32 -23 -3 -4 1 -9 9 -12 11 -4 13 -1 9 10
-5 12 -2 13 13 5 10 -5 123 -44 251 -87 139 -46 232 -81 230 -88 -1 -7 11 -12
28 -12 50 -1 105 -16 98 -28 -3 -5 -1 -7 4 -4 13 8 117 -26 108 -35 -4 -4 4
-4 17 -1 19 4 20 3 8 -7 -13 -10 -13 -11 2 -6 9 3 86 -19 170 -49 84 -29 225
-78 313 -109 88 -31 163 -55 168 -53 8 2 -115 47 -578 209 -266 93 -904 308
-912 307 -5 0 9 -8 30 -17z m574 -198 c-3 -3 -12 -4 -19 -1 -8 3 -5 6 6 6 11
1 17 -2 13 -5z"/>
<path d="M5546 9153 c-6 -14 -5 -15 5 -6 7 7 10 15 7 18 -3 3 -9 -2 -12 -12z"/>
<path d="M4348 9063 c7 -3 16 -2 19 1 4 3 -2 6 -13 5 -11 0 -14 -3 -6 -6z"/>
<path d="M5545 9030 c-3 -6 1 -7 9 -4 18 7 21 14 7 14 -6 0 -13 -4 -16 -10z"/>
<path d="M5597 9009 c7 -7 15 -10 18 -7 3 3 -2 9 -12 12 -14 6 -15 5 -6 -5z"/>
<path d="M5090 8959 c0 -5 5 -7 10 -4 6 3 10 8 10 11 0 2 -4 4 -10 4 -5 0 -10
-5 -10 -11z"/>
<path d="M3782 8923 c-57 -19 -102 -36 -100 -39 5 -4 228 65 228 71 0 9 -25 3
-128 -32z"/>
<path d="M4395 8911 c-77 -27 -149 -52 -160 -57 -11 -4 -34 -8 -52 -8 -18 0
-28 -3 -22 -7 6 -3 -1 -9 -16 -13 -15 -4 -25 -9 -22 -12 4 -5 427 133 436 142
12 12 -39 -2 -164 -45z"/>
<path d="M5730 8934 c19 -9 159 -59 310 -111 151 -51 320 -109 375 -128 113
-39 121 -41 103 -21 -7 8 -16 12 -19 10 -6 -3 -127 35 -239 76 -41 15 -132 46
-203 70 -70 23 -125 46 -122 51 4 5 0 6 -8 3 -7 -2 -27 0 -43 7 -16 6 -40 13
-54 16 -14 2 -26 8 -28 13 -2 5 -10 6 -19 3 -10 -4 -14 -2 -10 4 3 5 1 10 -6
10 -7 0 -25 3 -42 7 -29 6 -29 5 5 -10z"/>
<path d="M3042 8675 c-332 -111 -607 -206 -612 -211 -5 -5 1 -9 15 -9 12 0 21
4 17 9 -3 5 2 6 12 3 10 -4 15 -3 11 3 -3 5 14 14 37 20 24 6 54 15 68 20 212
75 263 91 277 85 10 -3 14 -3 10 1 -11 11 53 35 77 29 12 -3 15 -2 7 1 -17 8
368 136 387 129 7 -3 10 0 7 5 -6 9 -1 11 38 14 6 1 14 4 17 7 12 13 162 59
172 53 7 -4 8 -3 4 4 -4 8 0 12 11 12 10 1 32 7 48 15 84 38 -53 -5 -603 -190z"/>
<path d="M3985 8774 c-55 -19 -105 -32 -113 -29 -7 2 -11 1 -8 -4 3 -4 -53
-27 -125 -50 -72 -24 -128 -45 -126 -48 5 -4 487 154 496 163 11 10 -32 -1
-124 -32z"/>
<path d="M5131 8794 c0 -11 3 -14 6 -6 3 7 2 16 -1 19 -3 4 -6 -2 -5 -13z"/>
<path d="M5000 8778 c0 -26 47 -76 85 -88 27 -9 44 -9 72 1 37 12 74 39 54 39
-5 0 -12 -4 -16 -10 -3 -5 -21 -14 -40 -19 -54 -15 -101 5 -130 53 -14 23 -25
33 -25 24z"/>
<path d="M3761 8754 c0 -11 3 -14 6 -6 3 7 2 16 -1 19 -3 4 -6 -2 -5 -13z"/>
<path d="M3868 8763 c7 -3 16 -2 19 1 4 3 -2 6 -13 5 -11 0 -14 -3 -6 -6z"/>
<path d="M6828 8743 c7 -3 16 -2 19 1 4 3 -2 6 -13 5 -11 0 -14 -3 -6 -6z"/>
<path d="M6715 8719 c-4 -6 -5 -12 -2 -15 2 -3 7 2 10 11 7 17 1 20 -8 4z"/>
<path d="M7112 8671 c22 -15 308 -114 314 -109 2 2 -65 28 -149 58 -180 63
-188 65 -165 51z"/>
<path d="M6541 8656 c6 -7 171 -66 183 -66 5 0 6 3 2 8 -7 7 -11 8 -37 11 -5
0 -7 5 -4 11 3 5 0 8 -7 5 -7 -3 -38 4 -68 15 -52 19 -78 25 -69 16z"/>
<path d="M3545 8628 c-16 -5 -40 -14 -52 -20 -12 -6 -35 -11 -51 -12 -17 -1
-29 -3 -27 -6 2 -3 -95 -39 -216 -79 -121 -40 -218 -75 -215 -78 4 -4 607 194
615 203 7 7 -23 3 -54 -8z"/>
<path d="M6741 8586 c6 -6 568 -203 744 -261 71 -24 121 -37 111 -29 -11 7
-34 17 -53 20 -19 4 -30 11 -26 17 3 6 1 7 -5 3 -16 -10 -293 87 -279 97 7 5
3 6 -9 2 -25 -7 -169 47 -157 59 4 4 0 4 -9 1 -21 -8 -88 12 -88 26 0 6 -4 8
-9 5 -4 -3 -55 10 -112 29 -104 35 -116 39 -108 31z"/>
<path d="M7119 8553 c-13 -16 -12 -17 4 -4 9 7 17 15 17 17 0 8 -8 3 -21 -13z"/>
<path d="M5067 8545 c-75 -26 -117 -87 -117 -167 0 -40 36 -135 48 -124 2 3
-1 12 -7 20 -7 8 -9 21 -5 27 4 7 3 9 -3 6 -28 -18 -30 92 -2 153 16 36 22 42
30 30 9 -12 10 -11 5 4 -5 14 -2 17 9 12 9 -3 13 -2 10 4 -8 14 29 30 70 30
22 0 34 4 30 10 -8 13 -22 12 -68 -5z"/>
<path d="M7442 8554 c3 -3 62 -25 129 -48 68 -24 133 -46 144 -50 12 -4 9 -1
-6 8 -22 13 -253 96 -267 96 -3 0 -3 -3 0 -6z"/>
<path d="M3238 8543 c7 -3 16 -2 19 1 4 3 -2 6 -13 5 -11 0 -14 -3 -6 -6z"/>
<path d="M5173 8538 c15 -5 27 -14 27 -19 0 -5 6 -8 13 -6 6 1 11 -4 9 -11 -1
-8 2 -11 9 -6 9 5 10 2 6 -9 -4 -11 -2 -14 7 -11 30 12 49 -123 24 -169 -22
-39 -40 -57 -51 -50 -5 3 -7 1 -4 -4 10 -17 -63 -41 -107 -37 -21 3 -51 11
-67 20 -16 8 -29 12 -29 9 0 -4 21 -15 46 -27 79 -34 167 -6 211 69 22 37 25
53 21 104 -3 38 -11 69 -25 87 -24 33 -80 72 -102 71 -9 0 -4 -5 12 -11z"/>
<path d="M5145 8520 c-3 -6 1 -7 9 -4 18 7 21 14 7 14 -6 0 -13 -4 -16 -10z"/>
<path d="M7405 8520 c-13 -6 -15 -9 -5 -9 8 0 22 4 30 9 18 12 2 12 -25 0z"/>
<path d="M5088 8503 c7 -3 16 -2 19 1 4 3 -2 6 -13 5 -11 0 -14 -3 -6 -6z"/>
<path d="M2365 8425 l-30 -25 38 21 c20 11 37 23 37 25 0 10 -17 2 -45 -21z"/>
<path d="M7746 8442 c5 -4 36 -25 69 -47 75 -49 125 -91 118 -99 -11 -11 19
-35 35 -29 9 3 14 3 11 -1 -4 -4 6 -20 22 -36 28 -28 40 -58 17 -44 -7 5 -8 3
-4 -5 5 -7 11 -10 14 -7 10 10 49 -58 77 -134 19 -54 28 -102 32 -172 3 -54
10 -98 15 -98 5 0 6 23 3 50 -3 28 -7 73 -10 101 -8 70 -55 194 -100 265 -49
76 -139 164 -226 220 -59 38 -101 59 -73 36z m214 -162 c0 -5 -2 -10 -4 -10
-3 0 -8 5 -11 10 -3 6 -1 10 4 10 6 0 11 -4 11 -10z"/>
<path d="M2895 8411 c-92 -33 -98 -34 -91 -20 4 8 1 6 -8 -4 -10 -13 -22 -17
-38 -12 -16 4 -19 3 -9 -3 11 -8 9 -11 -8 -17 -13 -4 -21 -9 -18 -11 3 -3 149
45 237 79 40 15 -19 4 -65 -12z"/>
<path d="M2273 8362 c-121 -96 -209 -225 -250 -367 -16 -55 -18 -145 -21
-1082 -1 -563 1 -1023 5 -1023 4 0 8 458 8 1018 0 953 1 1021 18 1081 23 80
84 204 97 196 6 -4 7 1 3 11 -4 12 -3 15 5 10 7 -4 12 -2 12 3 0 27 29 63 43
54 6 -3 7 -1 4 4 -6 10 21 42 30 36 1 -2 3 -1 3 2 0 9 37 42 69 61 17 10 31
22 31 26 0 13 -6 10 -57 -30z"/>
<path d="M2305 8351 c-3 -5 0 -13 6 -17 7 -4 9 -3 5 4 -3 5 0 13 6 15 9 4 10
6 1 6 -6 1 -14 -3 -18 -8z"/>
<path d="M2628 8320 c-43 -15 -80 -25 -83 -22 -3 3 -5 1 -5 -5 0 -17 -32 -25
-42 -11 -7 10 -9 10 -6 -2 3 -8 -7 -21 -23 -30 -70 -38 -213 -189 -196 -206 3
-3 14 10 25 28 59 94 189 189 323 233 43 15 81 31 84 36 4 5 5 8 3 8 -2 -1
-38 -14 -80 -29z"/>
<path d="M7632 8283 c-8 -3 13 -20 49 -42 34 -20 93 -70 132 -111 39 -41 63
-61 53 -45 -10 17 -29 42 -42 56 -14 14 -21 29 -17 33 4 4 0 4 -10 0 -17 -6
-21 3 -18 36 2 12 0 12 -7 1 -8 -10 -20 -6 -62 23 -29 20 -57 36 -62 36 -5 0
-6 5 -3 10 7 11 6 11 -13 3z"/>
<path d="M7920 8261 c0 -6 4 -13 10 -16 6 -3 7 1 4 9 -7 18 -14 21 -14 7z"/>
<path d="M7803 8235 c0 -8 4 -12 9 -9 5 3 6 10 3 15 -9 13 -12 11 -12 -6z"/>
<path d="M2330 8236 c0 -2 8 -10 18 -17 15 -13 16 -12 3 4 -13 16 -21 21 -21
13z"/>
<path d="M2330 8196 c0 -2 7 -7 16 -10 8 -3 12 -2 9 4 -6 10 -25 14 -25 6z"/>
<path d="M2145 8149 c-4 -6 -5 -12 -2 -15 2 -3 7 2 10 11 7 17 1 20 -8 4z"/>
<path d="M2243 8100 c0 -23 3 -28 9 -16 5 9 5 23 0 32 -6 12 -9 7 -9 -16z"/>
<path d="M2185 8090 c-3 -5 -1 -10 4 -10 6 0 11 5 11 10 0 6 -2 10 -4 10 -3 0
-8 -4 -11 -10z"/>
<path d="M7908 7995 l27 -60 5 -585 c3 -322 7 -576 9 -565 2 11 3 269 2 574
-2 521 -3 556 -22 605 -10 29 -26 61 -34 72 -8 10 -3 -8 13 -41z"/>
<path d="M2160 8021 c0 -6 4 -13 10 -16 6 -3 7 1 4 9 -7 18 -14 21 -14 7z"/>
<path d="M2238 7983 c-15 -34 -23 -76 -26 -145 -3 -68 -8 -96 -16 -91 -6 4 -5
-1 3 -10 11 -14 11 -20 0 -34 -12 -16 -12 -17 2 -5 13 9 18 37 21 120 4 74 11
123 26 160 25 65 18 69 -10 5z"/>
<path d="M4092 8012 c-13 -4 432 -6 989 -4 645 2 1031 -1 1066 -7 72 -14 129
-41 111 -53 -9 -7 -8 -8 5 -4 26 8 91 -57 116 -117 12 -27 21 -68 21 -92 0
-24 4 -46 10 -50 15 -9 -1 95 -23 148 -25 59 -109 138 -174 163 -46 18 -101
19 -1073 21 -564 1 -1035 -2 -1048 -5z"/>
<path d="M4000 7981 c-54 -29 -105 -84 -137 -148 -28 -58 -28 -58 -32 -291 -2
-129 1 -238 5 -242 5 -5 9 79 9 188 0 297 9 343 83 424 19 21 29 25 43 18 15
-8 17 -7 14 10 -3 15 6 24 38 39 23 11 35 19 27 20 -8 0 -31 -8 -50 -18z"/>
<path d="M4166 7947 c3 -10 9 -15 12 -12 3 3 0 11 -7 18 -10 9 -11 8 -5 -6z"/>
<path d="M4011 7914 c0 -11 3 -14 6 -6 3 7 2 16 -1 19 -3 4 -6 -2 -5 -13z"/>
<path d="M6332 7857 c-8 -10 -6 -13 7 -13 11 0 17 6 14 13 -3 7 -6 13 -8 13
-1 0 -7 -6 -13 -13z"/>
<path d="M4460 7856 c0 -2 7 -7 16 -10 8 -3 12 -2 9 4 -6 10 -25 14 -25 6z"/>
<path d="M2176 7842 c-3 -5 1 -9 9 -9 8 0 12 4 9 9 -3 4 -7 8 -9 8 -2 0 -6 -4
-9 -8z"/>
<path d="M4785 7830 c3 -5 8 -10 11 -10 2 0 4 5 4 10 0 6 -5 10 -11 10 -5 0
-7 -4 -4 -10z"/>
<path d="M2891 7819 c-145 -11 -340 -37 -441 -59 -113 -24 -74 -25 54 -1 204
38 528 66 667 57 141 -9 190 -17 182 -30 -4 -6 0 -6 9 2 12 10 29 8 92 -13
112 -37 209 -106 191 -136 -5 -7 -4 -10 2 -6 15 9 32 -30 43 -98 l9 -60 -4 64
c-4 44 -13 78 -30 107 -85 145 -356 205 -774 173z"/>
<path d="M4733 7806 c0 -8 6 -12 14 -9 9 4 11 0 7 -11 -3 -9 -9 -14 -13 -12
-4 3 -6 -11 -5 -30 2 -23 0 -32 -8 -28 -7 5 -8 3 -4 -5 5 -7 10 -10 13 -7 3 3
13 -3 22 -14 19 -22 61 -36 61 -21 0 6 -11 11 -25 11 -42 0 -62 72 -29 104 14
15 14 17 -3 23 -10 3 -21 7 -24 9 -3 2 -6 -3 -6 -10z"/>
<path d="M5120 7810 l-335 -5 338 -3 c219 -1 337 1 337 8 0 6 -1 9 -2 8 -2 -2
-154 -5 -338 -8z"/>
<path d="M5475 7810 c-3 -5 3 -18 15 -30 40 -40 13 -100 -46 -100 -19 0 -34
-5 -34 -11 0 -11 51 -4 82 12 29 16 33 67 8 102 -19 24 -20 29 -6 24 10 -4 15
-3 11 3 -8 13 -22 13 -30 0z"/>
<path d="M2771 7744 c0 -11 3 -14 6 -6 3 7 2 16 -1 19 -3 4 -6 -2 -5 -13z"/>
<path d="M8141 7738 c0 -13 4 -32 9 -43 5 -14 7 -8 6 22 0 24 -4 43 -8 43 -5
0 -8 -10 -7 -22z"/>
<path d="M2288 7724 c-26 -8 -50 -19 -54 -25 -4 -7 -1 -9 7 -6 8 3 38 13 67
22 28 9 52 18 52 21 0 7 -23 3 -72 -12z"/>
<path d="M2691 7724 c0 -11 3 -14 6 -6 3 7 2 16 -1 19 -3 4 -6 -2 -5 -13z"/>
<path d="M4236 7707 c3 -10 9 -15 12 -12 3 3 0 11 -7 18 -10 9 -11 8 -5 -6z"/>
<path d="M4830 7668 c0 -9 79 -8 85 1 2 4 -17 6 -41 7 -24 0 -44 -4 -44 -8z"/>
<path d="M4935 7670 c-3 -5 -2 -10 4 -10 5 0 13 5 16 10 3 6 2 10 -4 10 -5 0
-13 -4 -16 -10z"/>
<path d="M4990 7670 c-22 -7 -20 -8 13 -7 20 1 37 5 37 9 0 10 -16 9 -50 -2z"/>
<path d="M5050 7670 c0 -5 9 -10 20 -10 11 0 20 5 20 10 0 6 -9 10 -20 10 -11
0 -20 -4 -20 -10z"/>
<path d="M5150 7669 c0 -5 18 -9 40 -9 22 0 40 4 40 9 0 5 -18 9 -40 9 -22 0
-40 -3 -40 -9z"/>
<path d="M5240 7672 c0 -5 7 -9 15 -9 8 0 15 4 15 9 0 4 -7 8 -15 8 -8 0 -15
-4 -15 -8z"/>
<path d="M5290 7670 c-8 -5 -10 -10 -5 -10 6 0 17 5 25 10 8 5 11 10 5 10 -5
0 -17 -5 -25 -10z"/>
<path d="M5334 7668 c-3 -5 9 -8 25 -8 17 0 31 4 31 10 0 11 -49 9 -56 -2z"/>
<path d="M4135 7660 c-3 -5 -1 -10 4 -10 6 0 11 5 11 10 0 6 -2 10 -4 10 -3 0
-8 -4 -11 -10z"/>
<path d="M6400 7660 c0 -5 5 -10 10 -10 6 0 10 5 10 10 0 6 -4 10 -10 10 -5 0
-10 -4 -10 -10z"/>
<path d="M8150 7658 c0 -7 0 -409 0 -893 0 -484 -5 -934 -10 -1000 -22 -291
-21 -320 4 -105 11 89 14 331 15 1063 1 521 -1 947 -4 947 -3 0 -5 -6 -5 -12z"/>
<path d="M6865 7637 c-10 -8 -15 -19 -11 -25 11 -18 27 -14 24 6 -3 16 22 17
400 17 221 0 402 3 402 8 0 4 -179 7 -398 7 -318 0 -402 -3 -417 -13z"/>
<path d="M7709 7621 c17 -17 19 -34 16 -200 -1 -100 2 -184 7 -187 4 -3 8 77
8 178 0 150 -3 188 -16 206 -8 12 -19 22 -25 22 -5 0 0 -9 10 -19z"/>
<path d="M6400 7620 c0 -5 5 -10 10 -10 6 0 10 5 10 10 0 6 -4 10 -10 10 -5 0
-10 -4 -10 -10z"/>
<path d="M5895 7600 c-3 -5 -1 -10 4 -10 6 0 11 5 11 10 0 6 -2 10 -4 10 -3 0
-8 -4 -11 -10z"/>
<path d="M6399 7484 c-1 -65 -1 -122 0 -126 0 -4 1 -218 1 -477 1 -259 5 -473
9 -476 8 -4 3 1186 -5 1194 -2 2 -5 -49 -5 -115z"/>
<path d="M6841 7173 c0 -235 4 -457 8 -493 4 -36 8 155 8 423 0 268 -4 490 -9
493 -5 3 -8 -183 -7 -423z"/>
<path d="M5070 7575 c0 -5 5 -17 10 -25 5 -8 10 -10 10 -5 0 6 -5 17 -10 25
-5 8 -10 11 -10 5z"/>
<path d="M3567 7519 c7 -7 15 -10 18 -7 3 3 -2 9 -12 12 -14 6 -15 5 -6 -5z"/>
<path d="M4025 7521 c-3 -5 -2 -12 3 -15 5 -3 9 1 9 9 0 17 -3 19 -12 6z"/>
<path d="M6184 7502 c2 -9 8 -17 15 -18 6 -1 7 0 1 3 -5 2 -7 9 -4 14 3 6 12
5 22 -3 14 -10 15 -10 5 2 -18 20 -41 21 -39 2z"/>
<path d="M2715 7501 c-3 -5 -31 -13 -63 -16 -31 -4 -111 -21 -177 -37 -144
-36 -151 -37 -147 -20 1 8 -2 11 -8 7 -8 -5 -8 -11 -1 -19 8 -10 2 -16 -26
-24 -20 -6 -41 -8 -47 -5 -6 3 -8 3 -4 -2 5 -5 -1 -14 -12 -22 -11 -8 -20 -19
-20 -25 0 -7 6 -4 13 5 26 35 309 119 450 133 40 4 66 9 59 11 -6 3 -10 9 -6
14 3 5 3 9 0 9 -3 0 -7 -4 -11 -9z"/>
<path d="M2795 7502 c-29 -4 27 -7 135 -8 176 0 289 -14 395 -49 l20 -7 -20
13 c-59 38 -390 69 -530 51z"/>
<path d="M7660 7495 c0 -8 2 -15 4 -15 2 0 6 7 10 15 3 8 1 15 -4 15 -6 0 -10
-7 -10 -15z"/>
<path d="M4102 7488 c-9 -3 448 -7 1017 -7 1124 -1 1068 2 1091 -54 8 -19 9
-20 9 -3 1 23 -47 66 -74 66 -431 5 -2031 3 -2043 -2z"/>
<path d="M3870 7476 c0 -2 7 -7 16 -10 8 -3 12 -2 9 4 -6 10 -25 14 -25 6z"/>
<path d="M4023 7473 c4 -3 1 -13 -6 -22 -11 -14 -10 -14 5 -2 16 12 16 31 1
31 -4 0 -3 -3 0 -7z"/>
<path d="M4051 7456 c-21 -23 -23 -33 -25 -205 -2 -100 1 -184 5 -187 5 -3 9
79 9 182 0 179 1 189 22 211 12 13 19 23 16 23 -2 0 -15 -11 -27 -24z"/>
<path d="M6226 7472 c-2 -4 -1 -14 4 -22 7 -11 9 -9 7 8 -1 24 -3 26 -11 14z"/>
<path d="M3682 7450 c0 -14 2 -19 5 -12 2 6 2 18 0 25 -3 6 -5 1 -5 -13z"/>
<path d="M7236 7445 c-11 -8 -15 -15 -9 -15 6 0 16 7 23 15 16 19 11 19 -14 0z"/>
<path d="M3375 7424 c17 -9 35 -23 41 -30 10 -13 12 -12 17 1 4 8 3 14 -1 13
-4 -1 -21 6 -39 15 -18 9 -36 17 -40 17 -4 -1 6 -8 22 -16z"/>
<path d="M7181 7424 c0 -11 3 -14 6 -6 3 7 2 16 -1 19 -3 4 -6 -2 -5 -13z"/>
<path d="M3671 7404 c0 -11 3 -14 6 -6 3 7 2 16 -1 19 -3 4 -6 -2 -5 -13z"/>
<path d="M2860 7390 c-70 -4 -52 -6 100 -11 181 -6 340 -30 340 -51 0 -5 4 -6
10 -3 5 3 19 1 31 -6 24 -13 80 -19 73 -8 -2 4 0 9 6 11 10 3 23 48 14 48 -2
0 -9 -11 -14 -25 -12 -31 -30 -32 -122 -1 -115 39 -277 55 -438 46z"/>
<path d="M6216 7383 c-6 -14 -5 -15 5 -6 7 7 10 15 7 18 -3 3 -9 -2 -12 -12z"/>
<path d="M2650 7371 l-35 -7 47 -5 c25 -2 44 -1 42 3 -3 4 13 9 33 11 35 3 35
4 -7 4 -25 0 -61 -3 -80 -6z"/>
<path d="M3641 7313 c-19 -55 -59 -139 -98 -206 -3 -4 -12 -2 -21 5 -14 10
-15 10 -4 -2 15 -18 16 -34 0 -24 -7 4 -8 3 -4 -5 4 -6 11 -9 16 -6 27 16 146
273 138 297 -2 5 -14 -22 -27 -59z"/>
<path d="M7037 7363 c-10 -9 -9 -233 1 -234 50 -4 124 -3 143 2 14 4 -11 7
-58 8 l-83 1 0 110 0 109 83 4 82 3 -81 2 c-44 1 -84 -1 -87 -5z"/>
<path d="M7372 7258 l2 -113 3 108 4 107 79 0 80 0 0 -122 c0 -68 4 -118 8
-112 4 7 6 64 4 128 l-3 116 -90 0 -89 0 2 -112z"/>
<path d="M2485 7336 c-90 -24 -179 -54 -160 -55 6 -1 39 8 74 19 35 10 67 19
70 18 3 -1 14 2 24 6 9 5 41 14 70 21 28 7 43 13 32 13 -11 0 -60 -10 -110
-22z"/>
<path d="M6223 7320 c0 -25 2 -35 4 -22 2 12 2 32 0 45 -2 12 -4 2 -4 -23z"/>
<path d="M7214 7245 c0 -66 1 -92 3 -57 2 34 2 88 0 120 -2 31 -3 3 -3 -63z"/>
<path d="M2181 7294 c0 -11 3 -14 6 -6 3 7 2 16 -1 19 -3 4 -6 -2 -5 -13z"/>
<path d="M2200 7286 c0 -14 4 -27 8 -30 5 -3 6 8 4 25 -5 35 -12 38 -12 5z"/>
<path d="M8075 7290 c-3 -6 1 -7 9 -4 18 7 21 14 7 14 -6 0 -13 -4 -16 -10z"/>
<path d="M2263 7268 c-18 -6 -33 -15 -33 -19 0 -4 17 -1 38 8 60 24 57 31 -5
11z"/>
<path d="M3830 5745 c0 -933 4 -1563 10 -1598 11 -72 48 -151 90 -197 18 -19
27 -28 21 -19 -6 8 -9 26 -6 38 3 19 2 21 -10 11 -11 -10 -18 -5 -35 22 -57
93 -54 27 -57 1326 -3 863 0 1198 8 1214 7 12 7 18 1 14 -7 -4 -10 109 -8 349
1 196 -2 361 -6 368 -4 7 -8 -681 -8 -1528z"/>
<path d="M8021 7244 c0 -11 3 -14 6 -6 3 7 2 16 -1 19 -3 4 -6 -2 -5 -13z"/>
<path d="M8075 7250 c3 -5 8 -10 11 -10 2 0 4 5 4 10 0 6 -5 10 -11 10 -5 0
-7 -4 -4 -10z"/>
<path d="M2925 7220 c27 -12 43 -12 25 0 -8 5 -22 9 -30 9 -10 0 -8 -3 5 -9z"/>
<path d="M6222 7210 c0 -14 2 -19 5 -12 2 6 2 18 0 25 -3 6 -5 1 -5 -13z"/>
<path d="M7729 7218 c-5 -13 -3 -438 2 -438 4 0 7 99 8 220 1 121 0 220 -4
220 -3 0 -5 -1 -6 -2z"/>
<path d="M3358 7203 c7 -3 16 -2 19 1 4 3 -2 6 -13 5 -11 0 -14 -3 -6 -6z"/>
<path d="M6222 7150 c0 -14 2 -19 5 -12 2 6 2 18 0 25 -3 6 -5 1 -5 -13z"/>
<path d="M7375 7130 c5 -8 144 -4 153 5 4 3 -30 5 -75 4 -46 -1 -81 -5 -78 -9z"/>
<path d="M6216 7068 c-9 -77 -7 -130 4 -123 8 5 14 175 6 175 -2 0 -6 -24 -10
-52z"/>
<path d="M3501 7008 c1 -55 5 -50 11 15 2 20 0 37 -4 37 -4 0 -7 -24 -7 -52z"/>
<path d="M2730 7043 c-19 -2 -72 -10 -116 -18 -45 -9 -88 -14 -95 -12 -8 2
-10 2 -4 -1 9 -5 -137 -54 -167 -55 -9 -1 -15 -3 -13 -5 7 -7 -67 -42 -76 -36
-5 3 -9 0 -9 -6 0 -6 -10 -15 -23 -21 -13 -6 -24 -16 -24 -22 0 -7 -4 -21 -9
-31 -5 -14 -4 -17 4 -12 7 4 12 13 12 20 0 19 39 50 93 75 114 52 342 111 429
111 15 0 30 5 33 10 3 6 5 9 3 8 -2 0 -19 -3 -38 -5z"/>
<path d="M2833 7043 c32 -2 81 -2 110 0 29 2 3 3 -58 3 -60 0 -84 -1 -52 -3z"/>
<path d="M3040 7040 c-36 -6 -39 -7 -14 -8 17 -1 64 -11 104 -21 41 -11 76
-18 78 -16 4 4 -100 35 -118 35 -6 0 -8 5 -5 10 3 6 5 9 3 8 -2 0 -23 -4 -48
-8z"/>
<path d="M4020 5919 c0 -1126 0 -1132 21 -1165 27 -44 67 -54 199 -52 l105 1
-129 7 -129 6 -29 32 -28 33 2 1134 c2 624 0 1135 -4 1135 -5 0 -8 -509 -8
-1131z"/>
<path d="M5060 7046 c0 -2 9 -6 20 -9 11 -3 18 -1 14 4 -5 9 -34 13 -34 5z"/>
<path d="M4929 7001 c-33 -33 -39 -45 -39 -82 0 -37 43 -427 68 -614 8 -60 8
-60 13 -18 2 23 1 39 -3 37 -5 -3 -8 12 -8 33 0 34 -7 92 -40 373 -24 199 -24
216 -2 248 12 16 36 36 54 45 22 11 27 17 14 17 -10 0 -36 -17 -57 -39z"/>
<path d="M5153 7033 c9 -2 23 -2 30 0 6 3 -1 5 -18 5 -16 0 -22 -2 -12 -5z"/>
<path d="M5225 7033 c35 -7 75 -25 75 -33 0 -13 -26 -30 -35 -22 -5 4 -5 1 -1
-6 6 -11 11 -10 26 3 15 14 19 14 29 1 22 -26 24 -90 7 -217 -29 -228 -47
-385 -71 -619 -16 -165 -35 -238 -57 -224 -7 4 -8 3 -4 -4 3 -6 -2 -16 -13
-21 -24 -14 -54 -14 -46 -2 3 5 0 13 -6 17 -8 4 -9 3 -5 -5 11 -18 -21 -25
-55 -11 -34 14 -63 62 -56 91 3 11 2 17 -3 14 -10 -6 -24 151 -14 166 5 8 3 9
-6 4 -10 -6 -12 3 -8 46 4 40 3 48 -4 33 -13 -27 14 -269 33 -310 29 -58 121
-85 175 -49 40 26 61 70 67 143 5 58 25 234 66 582 33 272 35 313 18 352 -18
42 -69 79 -107 77 -20 -1 -21 -2 -5 -6z"/>
<path d="M3236 6967 c13 -22 15 -33 6 -52 -14 -30 -27 -31 -127 -5 -78 20
-306 39 -293 25 4 -4 49 -9 101 -10 55 -1 132 -12 189 -25 79 -19 102 -22 122
-12 32 14 34 50 5 83 l-20 24 17 -28z"/>
<path d="M7090 6951 c0 -4 -11 -6 -25 -4 -30 6 -34 -7 -37 -140 -3 -114 -7
-110 107 -104 l70 3 -82 2 -83 2 0 110 0 110 30 0 c20 0 30 5 30 15 0 8 -2 15
-5 15 -3 0 -5 -4 -5 -9z"/>
<path d="M3491 6883 c-7 -37 -14 -79 -17 -93 -4 -25 -4 -25 6 -2 12 27 33 153
27 159 -3 2 -10 -27 -16 -64z"/>
<path d="M7115 6940 c-7 -12 2 -12 30 0 19 8 19 9 -2 9 -12 1 -25 -3 -28 -9z"/>
<path d="M7170 6940 c0 -5 5 -10 10 -10 6 0 10 5 10 10 0 6 -4 10 -10 10 -5 0
-10 -4 -10 -10z"/>
<path d="M7370 6930 c-3 -14 -4 -71 -2 -127 l3 -103 92 2 92 2 -87 3 -87 4 -3
122 c-2 67 -5 111 -8 97z"/>
<path d="M7395 6940 c3 -5 10 -10 16 -10 5 0 9 5 9 10 0 6 -7 10 -16 10 -8 0
-12 -4 -9 -10z"/>
<path d="M7430 6938 c0 -5 20 -8 45 -8 25 0 45 3 45 8 0 4 -20 7 -45 7 -25 0
-45 -3 -45 -7z"/>
<path d="M7214 6830 c0 -63 1 -89 3 -57 2 31 2 83 0 115 -2 31 -3 5 -3 -58z"/>
<path d="M7544 6830 c0 -63 1 -89 3 -57 2 31 2 83 0 115 -2 31 -3 5 -3 -58z"/>
<path d="M2710 6922 c0 -4 17 -6 38 -4 58 5 62 10 10 11 -27 1 -48 -3 -48 -7z"/>
<path d="M6210 6914 c0 -8 5 -12 10 -9 6 4 8 11 5 16 -9 14 -15 11 -15 -7z"/>
<path d="M2580 6904 c-86 -19 -146 -39 -255 -84 -49 -21 -99 -40 -110 -43 -11
-3 -4 -4 15 -3 19 1 47 10 62 20 15 10 31 15 37 12 5 -3 11 -2 13 4 5 15 170
70 272 90 50 10 78 18 61 18 -16 0 -59 -6 -95 -14z"/>
<path d="M2955 6880 c-3 -5 -1 -10 4 -10 6 0 11 5 11 10 0 6 -2 10 -4 10 -3 0
-8 -4 -11 -10z"/>
<path d="M4990 6880 c-9 -6 -10 -10 -3 -10 6 0 15 5 18 10 8 12 4 12 -15 0z"/>
<path d="M5195 6879 c-4 -6 -5 -12 -2 -15 2 -3 7 2 10 11 7 17 1 20 -8 4z"/>
<path d="M6210 6863 c0 -14 3 -23 7 -19 10 10 11 46 1 46 -4 0 -8 -12 -8 -27z"/>
<path d="M6270 6879 c0 -5 5 -7 10 -4 6 3 10 8 10 11 0 2 -4 4 -10 4 -5 0 -10
-5 -10 -11z"/>
<path d="M3212 6850 c0 -14 2 -19 5 -12 2 6 2 18 0 25 -3 6 -5 1 -5 -13z"/>
<path d="M3110 6840 c0 -5 5 -10 11 -10 5 0 7 5 4 10 -3 6 -8 10 -11 10 -2 0
-4 -4 -4 -10z"/>
<path d="M7980 6836 c0 -2 7 -7 16 -10 8 -3 12 -2 9 4 -6 10 -25 14 -25 6z"/>
<path d="M6210 6810 c0 -5 5 -10 11 -10 5 0 7 5 4 10 -3 6 -8 10 -11 10 -2 0
-4 -4 -4 -10z"/>
<path d="M2155 6780 c6 -30 16 -40 12 -12 -2 12 -6 24 -10 28 -3 4 -4 -4 -2
-16z"/>
<path d="M3446 6787 c3 -10 9 -15 12 -12 3 3 0 11 -7 18 -10 9 -11 8 -5 -6z"/>
<path d="M6210 6779 c0 -5 5 -7 10 -4 6 3 10 8 10 11 0 2 -4 4 -10 4 -5 0 -10
-5 -10 -11z"/>
<path d="M7720 6762 c0 -7 41 -12 105 -14 58 -2 105 0 105 5 0 4 -40 7 -89 7
-49 0 -96 3 -105 6 -9 3 -16 1 -16 -4z"/>
<path d="M3435 6695 c-25 -60 -29 -64 -42 -48 -13 16 -13 16 -3 -5 9 -19 6
-29 -18 -65 -48 -69 -123 -148 -134 -140 -6 3 -8 1 -5 -4 6 -10 -37 -47 -55
-48 -3 0 -10 -3 -14 -7 -4 -4 -14 -2 -23 4 -10 8 -9 4 3 -10 11 -12 14 -22 8
-22 -7 0 -12 -4 -12 -10 0 -22 -42 -120 -50 -115 -5 3 -12 0 -16 -6 -4 -8 -3
-9 4 -5 22 13 12 -13 -10 -28 -12 -9 -19 -16 -15 -16 5 0 -1 -14 -13 -30 -12
-17 -26 -27 -32 -24 -6 4 -8 2 -4 -4 3 -6 -8 -33 -24 -60 -36 -57 -63 -139
-49 -147 5 -4 9 6 9 22 1 42 33 106 108 212 38 53 76 118 86 144 14 37 45 75
130 160 98 98 118 124 161 209 27 54 46 100 43 103 -3 3 -17 -24 -33 -60z"/>
<path d="M6210 6688 c0 -43 4 -68 9 -62 12 12 19 104 8 104 -5 0 -7 7 -3 15 3
8 1 15 -4 15 -6 0 -10 -32 -10 -72z"/>
<path d="M7966 6733 c-6 -14 -5 -15 5 -6 7 7 10 15 7 18 -3 3 -9 -2 -12 -12z"/>
<path d="M3260 6726 c0 -2 8 -10 18 -17 15 -13 16 -12 3 4 -13 16 -21 21 -21
13z"/>
<path d="M2235 6660 c-3 -5 -1 -10 4 -10 6 0 11 5 11 10 0 6 -2 10 -4 10 -3 0
-8 -4 -11 -10z"/>
<path d="M3210 6646 c0 -2 7 -7 16 -10 8 -3 12 -2 9 4 -6 10 -25 14 -25 6z"/>
<path d="M3921 6636 c-7 -8 -8 -17 -3 -20 6 -3 12 3 15 14 6 24 4 25 -12 6z"/>
<path d="M6210 5692 c0 -794 -2 -920 -15 -939 -13 -19 -13 -22 3 -34 14 -11
15 -11 5 0 -9 11 -8 19 4 38 13 20 16 54 15 191 -1 120 2 168 11 174 9 6 9 8
0 8 -9 0 -13 21 -13 70 0 49 4 70 13 70 9 0 9 2 0 8 -10 6 -12 150 -10 670 1
364 -1 662 -5 662 -5 0 -8 -413 -8 -918z"/>
<path d="M6849 6598 c-3 -36 2 -192 6 -196 3 -3 5 43 5 101 0 59 -2 107 -5
107 -3 0 -5 -6 -6 -12z"/>
<path d="M2106 6573 c-6 -14 -5 -15 5 -6 7 7 10 15 7 18 -3 3 -9 -2 -12 -12z"/>
<path d="M2705 6583 c-16 -2 -65 -13 -108 -24 -43 -11 -83 -16 -89 -13 -6 4
-8 3 -5 -2 3 -6 -28 -23 -69 -38 -41 -16 -74 -33 -74 -37 0 -5 -5 -9 -11 -9
-6 0 -24 -9 -40 -21 -16 -11 -34 -17 -40 -13 -7 4 -9 3 -6 -3 4 -5 -5 -20 -18
-31 -14 -12 -25 -30 -24 -39 0 -14 2 -13 9 4 11 26 125 103 207 139 96 43 236
75 361 83 l117 8 -90 0 c-49 0 -103 -2 -120 -4z"/>
<path d="M2955 6580 c-35 -6 -37 -7 -10 -9 65 -3 95 -52 58 -94 -14 -15 -14
-19 -3 -15 8 2 20 19 27 36 12 29 11 34 -9 54 -13 13 -22 26 -20 31 1 4 1 6 0
6 -2 -1 -21 -5 -43 -9z"/>
<path d="M3280 6538 c-10 -22 -10 -22 4 -4 8 10 20 15 27 10 8 -4 10 -3 5 4
-11 18 -24 14 -36 -10z"/>
<path d="M7369 6517 c4 -4 48 -6 97 -5 l89 3 -97 5 c-53 3 -94 1 -89 -3z"/>
<path d="M7030 6400 l0 -120 88 2 87 2 -82 3 -83 4 0 109 0 109 83 4 82 3 -87
2 -88 2 0 -120z"/>
<path d="M7214 6405 c0 -66 1 -92 3 -57 2 34 2 88 0 120 -2 31 -3 3 -3 -63z"/>
<path d="M7372 6392 c-1 -83 -5 -111 -14 -106 -7 4 -8 3 -4 -5 4 -6 11 -9 16
-6 5 3 11 1 15 -5 3 -5 12 -10 18 -10 8 0 7 3 -2 9 -8 5 16 9 64 10 43 1 81 3
83 6 3 3 -34 5 -81 5 l-86 0 -4 108 -3 107 -2 -113z"/>
<path d="M7544 6400 c0 -58 1 -81 3 -52 2 28 2 76 0 105 -2 28 -3 5 -3 -53z"/>
<path d="M6356 6477 c3 -10 9 -15 12 -12 3 3 0 11 -7 18 -10 9 -11 8 -5 -6z"/>
<path d="M2625 6450 c-80 -18 -169 -49 -162 -56 2 -2 35 7 73 19 99 34 213 50
331 46 55 -2 99 -1 96 4 -9 15 -256 6 -338 -13z"/>
<path d="M2618 6423 c7 -3 16 -2 19 1 4 3 -2 6 -13 5 -11 0 -14 -3 -6 -6z"/>
<path d="M6955 6399 c-4 -6 -5 -12 -2 -15 2 -3 7 2 10 11 7 17 1 20 -8 4z"/>
<path d="M2344 6334 c-49 -31 -90 -57 -91 -58 -1 -1 8 -8 20 -15 20 -13 21
-13 9 1 -10 13 -10 17 0 21 7 2 21 0 31 -5 11 -5 17 -5 17 2 0 5 -7 10 -16 10
-8 0 -12 5 -9 11 4 6 14 8 22 5 9 -4 11 -2 7 6 -5 8 -2 9 10 5 10 -4 15 -3 11
3 -6 9 8 14 28 11 5 -1 5 4 1 10 -5 9 -2 10 10 6 10 -4 15 -3 11 3 -3 5 7 16
22 24 15 8 23 15 17 16 -5 0 -50 -25 -100 -56z"/>
<path d="M6404 6288 c5 -76 3 -104 -6 -110 -10 -6 -10 -8 -1 -8 18 0 19 -1276
1 -1283 -10 -4 -10 -6 -1 -6 17 -1 18 -704 2 -765 -6 -22 -13 -49 -15 -59 -4
-25 -39 -79 -64 -102 -18 -17 -23 -17 -31 -5 -8 13 -9 12 -7 -2 4 -19 -38 -58
-63 -58 -10 0 -21 -5 -25 -12 -5 -8 -2 -9 10 -5 10 4 21 7 26 7 18 0 111 83
136 120 54 82 54 64 54 1273 0 789 -3 1117 -11 1117 -7 0 -9 -32 -5 -102z"/>
<path d="M6850 6378 c-4 -110 -1 -370 4 -375 3 -3 6 82 6 190 0 109 -2 197 -5
197 -3 0 -5 -6 -5 -12z"/>
<path d="M2100 6341 c0 -6 4 -13 10 -16 6 -3 7 1 4 9 -7 18 -14 21 -14 7z"/>
<path d="M5031 6334 c0 -11 3 -14 6 -6 3 7 2 16 -1 19 -3 4 -6 -2 -5 -13z"/>
<path d="M2211 6307 c0 -16 -5 -26 -11 -22 -5 3 -10 2 -10 -3 0 -5 12 -9 26
-9 14 0 22 2 16 6 -5 3 -12 17 -15 31 -4 24 -4 24 -6 -3z"/>
<path d="M7698 6313 c7 -3 16 -2 19 1 4 3 -2 6 -13 5 -11 0 -14 -3 -6 -6z"/>
<path d="M2155 6289 c-4 -5 -4 -13 -1 -16 3 -4 6 0 6 8 0 11 2 11 10 -1 6 -9
10 -10 10 -3 0 17 -17 25 -25 12z"/>
<path d="M7575 6280 c-3 -5 -1 -10 4 -10 6 0 11 5 11 10 0 6 -2 10 -4 10 -3 0
-8 -4 -11 -10z"/>
<path d="M2160 6256 c0 -2 8 -10 18 -17 15 -13 16 -12 3 4 -13 16 -21 21 -21
13z"/>
<path d="M2205 6250 c-3 -6 1 -7 9 -4 18 7 21 14 7 14 -6 0 -13 -4 -16 -10z"/>
<path d="M2116 6242 c-2 -4 4 -8 14 -8 10 0 16 4 14 8 -3 4 -9 8 -14 8 -5 0
-11 -4 -14 -8z"/>
<path d="M7075 6239 c-4 -6 -5 -12 -2 -15 2 -3 7 2 10 11 7 17 1 20 -8 4z"/>
<path d="M7695 6240 c-3 -6 1 -7 9 -4 18 7 21 14 7 14 -6 0 -13 -4 -16 -10z"/>
<path d="M7197 6149 c7 -7 15 -10 18 -7 3 3 -2 9 -12 12 -14 6 -15 5 -6 -5z"/>
<path d="M7087 6102 l-58 -3 3 -117 3 -117 85 -1 85 0 -82 3 -83 4 0 109 0
109 83 3 c45 2 69 5 52 8 -16 3 -56 4 -88 2z"/>
<path d="M7393 6098 c-2 -5 28 -8 66 -8 39 0 71 3 71 8 0 4 -30 7 -66 7 -36 0
-68 -3 -71 -7z"/>
<path d="M5010 6091 c0 -6 4 -13 10 -16 6 -3 7 1 4 9 -7 18 -14 21 -14 7z"/>
<path d="M7374 5980 c0 -69 1 -97 3 -62 2 34 2 90 0 125 -2 34 -3 6 -3 -63z"/>
<path d="M7540 5997 c0 -59 3 -107 8 -107 8 0 6 199 -3 208 -3 3 -5 -43 -5
-101z"/>
<path d="M2816 6082 c-3 -5 1 -9 9 -9 8 0 12 4 9 9 -3 4 -7 8 -9 8 -2 0 -6 -4
-9 -8z"/>
<path d="M7806 6078 c3 -5 10 -6 15 -3 13 9 11 12 -6 12 -8 0 -12 -4 -9 -9z"/>
<path d="M2650 6059 c-36 -12 -69 -26 -75 -31 -7 -8 -4 -9 10 -4 154 55 212
56 226 3 9 -32 -12 -51 -71 -62 -90 -17 -216 -76 -283 -131 -33 -28 -75 -31
-92 -8 -11 15 -12 15 -12 0 0 -9 4 -16 9 -16 5 0 7 -4 4 -9 -3 -5 2 -15 12
-22 15 -12 16 -12 4 2 -11 15 -8 17 23 21 19 2 40 -1 46 -7 7 -7 8 -4 3 9 -6
15 -4 17 6 11 8 -5 11 -4 6 3 -3 6 8 20 25 32 26 19 35 21 57 11 23 -10 25
-10 10 2 -16 13 -13 16 35 40 28 14 79 33 112 42 84 23 115 36 116 49 6 39 1
53 -21 68 -32 23 -69 22 -150 -3z"/>
<path d="M7214 5980 c0 -58 1 -81 3 -52 2 28 2 76 0 105 -2 28 -3 5 -3 -53z"/>
<path d="M2500 6050 c0 -5 5 -10 11 -10 5 0 7 5 4 10 -3 6 -8 10 -11 10 -2 0
-4 -4 -4 -10z"/>
<path d="M3901 6034 c0 -11 3 -14 6 -6 3 7 2 16 -1 19 -3 4 -6 -2 -5 -13z"/>
<path d="M2505 6000 c-22 -15 -31 -16 -38 -7 -6 8 -7 7 -4 -5 7 -19 -19 -33
-27 -15 -3 7 -4 3 -3 -8 1 -14 -4 -20 -15 -19 -10 1 -15 -2 -13 -7 3 -4 -4
-13 -15 -19 -11 -6 -20 -8 -20 -4 0 4 -8 0 -18 -9 -10 -10 -22 -14 -27 -10 -4
5 -5 2 -1 -5 4 -7 12 -10 17 -7 5 4 9 -4 10 -17 0 -23 0 -23 9 -2 10 26 77 80
150 122 30 17 48 31 40 31 -8 0 -28 -9 -45 -19z m-135 -100 c0 -5 -5 -10 -11
-10 -5 0 -7 5 -4 10 3 6 8 10 11 10 2 0 4 -4 4 -10z"/>
<path d="M2881 5991 c-8 -5 -9 -11 -3 -15 5 -3 12 1 16 9 6 17 6 18 -13 6z"/>
<path d="M6590 5664 l0 -331 88 35 c79 32 96 36 182 36 135 0 192 -24 287
-120 102 -104 148 -123 239 -103 30 7 78 27 106 45 83 53 169 96 218 110 41
13 42 13 8 9 -50 -8 -121 -40 -189 -86 -71 -48 -170 -82 -213 -74 -49 10 -86
27 -80 36 3 5 0 8 -8 7 -7 -2 -12 3 -10 10 1 8 -2 11 -7 8 -13 -8 -52 34 -44
47 3 6 1 7 -5 3 -7 -4 -12 -4 -13 1 -3 35 -19 72 -19 45 0 -7 -5 -12 -11 -12
-5 0 -7 5 -4 10 4 6 3 10 -2 9 -4 -1 -33 10 -63 24 -30 15 -49 27 -42 27 7 0
10 5 7 10 -3 6 -11 10 -16 10 -6 0 -7 -5 -3 -12 5 -8 2 -9 -12 -4 -10 4 -57
10 -104 12 -75 4 -94 2 -165 -24 -44 -16 -88 -32 -97 -36 -17 -8 -18 11 -18
308 l0 316 38 1 c20 1 43 1 50 0 6 -1 12 2 12 7 0 5 -25 9 -55 8 l-55 -1 0
-331z"/>
<path d="M6775 5991 c-2 -4 10 -8 26 -9 16 -1 29 -1 29 2 0 7 -50 13 -55 7z"/>
<path d="M6738 5983 c7 -3 16 -2 19 1 4 3 -2 6 -13 5 -11 0 -14 -3 -6 -6z"/>
<path d="M2717 5929 c7 -7 15 -10 18 -7 3 3 -2 9 -12 12 -14 6 -15 5 -6 -5z"/>
<path d="M6376 5907 c3 -10 9 -15 12 -12 3 3 0 11 -7 18 -10 9 -11 8 -5 -6z"/>
<path d="M2925 5859 c4 -19 18 -59 32 -89 15 -30 26 -61 27 -67 1 -7 4 -12 8
-10 11 3 88 -75 82 -85 -3 -5 -1 -7 4 -6 11 4 72 -42 72 -54 0 -5 -5 -6 -12
-2 -7 4 -8 3 -4 -5 4 -6 11 -9 16 -6 5 3 24 -9 41 -27 17 -18 26 -24 18 -13
-7 11 -59 66 -114 121 -104 104 -155 181 -155 235 0 15 -5 31 -11 35 -8 4 -9
-4 -4 -27z"/>
<path d="M2008 5788 c4 -85 8 -109 15 -97 6 10 -5 189 -12 189 -4 0 -5 -42 -3
-92z"/>
<path d="M2796 5863 c-6 -14 -5 -15 5 -6 7 7 10 15 7 18 -3 3 -9 -2 -12 -12z"/>
<path d="M2326 5857 c3 -10 9 -15 12 -12 3 3 0 11 -7 18 -10 9 -11 8 -5 -6z"/>
<path d="M7423 5863 c20 -2 54 -2 75 0 20 2 3 4 -38 4 -41 0 -58 -2 -37 -4z"/>
<path d="M2335 5791 c-3 -5 -2 -12 3 -15 5 -3 9 1 9 9 0 17 -3 19 -12 6z"/>
<path d="M3920 5721 c0 -6 4 -13 10 -16 6 -3 7 1 4 9 -7 18 -14 21 -14 7z"/>
<path d="M5071 5720 c-37 -16 -80 -50 -92 -72 -7 -13 2 -8 23 13 72 72 165 76
236 11 51 -48 70 -107 53 -172 -16 -59 -34 -86 -72 -106 -38 -19 -152 -32
-129 -14 12 9 11 10 -8 5 -70 -20 -153 139 -112 216 6 11 7 19 1 19 -27 0 -28
-108 -1 -164 27 -55 78 -88 144 -94 87 -7 154 37 182 120 38 116 -35 232 -154
243 -26 3 -58 0 -71 -5z"/>
<path d="M7270 5711 c0 -6 4 -13 10 -16 6 -3 7 1 4 9 -7 18 -14 21 -14 7z"/>
<path d="M2900 5700 c0 -5 5 -10 11 -10 5 0 7 5 4 10 -3 6 -8 10 -11 10 -2 0
-4 -4 -4 -10z"/>
<path d="M2051 5674 c0 -11 3 -14 6 -6 3 7 2 16 -1 19 -3 4 -6 -2 -5 -13z"/>
<path d="M2022 5650 c-3 -48 25 -232 48 -321 23 -87 21 -66 -13 136 -14 83
-28 166 -30 185 l-4 35 -1 -35z"/>
<path d="M7872 5640 c0 -14 2 -19 5 -12 2 6 2 18 0 25 -3 6 -5 1 -5 -13z"/>
<path d="M2227 5590 c3 -25 7 -47 9 -49 8 -9 2 55 -6 74 -6 13 -7 5 -3 -25z"/>
<path d="M2253 5620 c10 -40 180 -140 365 -214 126 -51 178 -83 246 -153 119
-123 140 -288 63 -490 l-34 -87 -104 -1 c-68 -1 -118 -7 -144 -18 -51 -20 -37
-21 42 -2 83 19 215 16 207 -5 -4 -12 -2 -12 7 -3 6 6 13 22 14 35 1 13 3 26
4 31 0 4 9 7 19 7 11 0 13 3 5 8 -9 6 -7 22 8 67 65 195 38 344 -83 469 -30
31 -52 59 -49 62 3 3 -1 4 -9 2 -8 -1 -14 4 -15 12 0 8 -7 15 -16 15 -21 0
-99 36 -95 44 2 3 -8 7 -22 7 -15 1 -47 10 -72 20 -108 45 -310 156 -237 131
11 -4 16 -3 12 4 -4 5 -16 7 -28 3 -20 -6 -21 -5 -7 12 14 18 14 18 -2 5 -15
-11 -19 -11 -24 3 -3 9 -11 16 -16 16 -6 0 -17 8 -25 18 -11 13 -13 13 -10 2z"/>
<path d="M7658 5593 c7 -3 16 -2 19 1 4 3 -2 6 -13 5 -11 0 -14 -3 -6 -6z"/>
<path d="M5162 5545 c0 -16 2 -22 5 -12 2 9 2 23 0 30 -3 6 -5 -1 -5 -18z"/>
<path d="M7426 5532 c-3 -4 4 -9 15 -9 23 -2 25 3 4 10 -8 4 -16 3 -19 -1z"/>
<path d="M2247 5465 c3 -38 6 -87 7 -107 0 -21 3 -32 7 -26 4 6 12 -8 19 -33
22 -84 49 -164 78 -234 32 -76 133 -287 142 -295 22 -21 69 -104 64 -113 -4
-7 -4 -9 1 -5 4 4 15 2 23 -5 9 -6 -7 22 -35 63 -132 195 -253 498 -299 750
l-14 75 7 -70z"/>
<path d="M8105 5455 c-10 -65 -51 -247 -68 -305 -9 -28 -16 -39 -20 -30 -4 8
-4 4 -1 -9 4 -16 2 -21 -5 -17 -6 4 -9 1 -5 -7 5 -13 -44 -150 -83 -231 -12
-26 -19 -33 -26 -24 -6 9 -7 7 -3 -6 13 -39 -207 -402 -227 -374 -6 10 -7 9
-4 -2 7 -23 -104 -166 -118 -152 -4 4 -5 2 -3 -4 7 -23 -226 -249 -244 -238
-7 5 -8 2 -3 -6 6 -10 4 -12 -9 -7 -9 4 -15 3 -12 -2 7 -12 -39 -53 -49 -44
-4 5 -5 3 -2 -3 10 -17 -76 -74 -103 -69 -18 3 -20 2 -10 -10 12 -14 6 -20
-15 -15 -5 1 -7 -2 -3 -6 11 -10 -30 -37 -44 -28 -7 4 -8 3 -4 -4 8 -14 -30
-36 -46 -26 -7 4 -8 3 -4 -4 3 -6 -3 -16 -15 -23 -17 -9 -24 -8 -31 2 -8 11
-9 10 -4 -4 8 -25 -101 -98 -115 -76 -8 11 -9 10 -7 -6 2 -12 -2 -19 -10 -17
-8 1 -11 -2 -7 -8 7 -12 30 0 185 104 351 234 578 453 777 751 114 171 238
443 291 635 32 115 64 277 60 297 -3 10 -8 -4 -13 -32z"/>
<path d="M3214 5459 c-4 -8 -3 -9 4 -5 11 7 17 -6 13 -27 -1 -5 4 -5 10 -1 9
5 10 2 6 -10 -4 -9 -3 -15 2 -11 13 7 42 -84 57 -175 6 -41 12 -61 13 -44 2
52 -20 146 -49 210 -29 65 -44 82 -56 63z"/>
<path d="M5216 5453 c-6 -14 -5 -15 5 -6 7 7 10 15 7 18 -3 3 -9 -2 -12 -12z"/>
<path d="M6723 5435 c0 -7 6 -11 14 -8 7 3 13 6 13 8 0 2 -6 5 -13 8 -8 3 -14
-1 -14 -8z"/>
<path d="M7475 5400 c3 -5 8 -10 11 -10 2 0 4 5 4 10 0 6 -5 10 -11 10 -5 0
-7 -4 -4 -10z"/>
<path d="M7675 5400 c3 -5 8 -10 11 -10 2 0 4 5 4 10 0 6 -5 10 -11 10 -5 0
-7 -4 -4 -10z"/>
<path d="M7765 5355 c23 -8 125 -11 113 -4 -7 5 -38 8 -68 8 -30 0 -50 -2 -45
-4z"/>
<path d="M3061 5324 c0 -11 3 -14 6 -6 3 7 2 16 -1 19 -3 4 -6 -2 -5 -13z"/>
<path d="M7872 5284 c-7 -26 -10 -49 -8 -52 3 -2 8 7 12 22 3 14 9 24 13 21 4
-2 5 9 3 26 -2 16 -5 29 -6 29 -1 0 -7 -21 -14 -46z"/>
<path d="M6745 5252 c-27 -10 -74 -29 -102 -42 l-53 -25 0 -228 0 -228 30 21
c47 33 135 69 190 76 28 4 53 11 56 16 4 6 -5 8 -22 4 -16 -4 -42 -9 -59 -11
-16 -3 -65 -23 -107 -44 -43 -21 -78 -35 -78 -31 0 5 6 11 13 13 10 4 10 6 0
6 -10 1 -13 48 -13 200 0 173 2 200 16 205 9 3 21 3 26 -1 6 -3 8 -1 5 4 -8
13 73 49 144 64 85 18 231 -3 214 -31 -3 -5 0 -12 6 -16 8 -4 9 -3 5 4 -20 32
16 5 70 -53 51 -55 58 -67 45 -75 -9 -5 -11 -10 -4 -10 6 0 14 4 18 10 8 13
36 0 28 -14 -3 -6 -3 -8 1 -4 4 3 33 -3 64 -14 85 -29 181 -21 267 22 36 19
69 38 72 44 4 6 -11 0 -33 -13 -159 -95 -325 -76 -440 50 -93 101 -111 111
-224 115 -64 3 -97 -1 -135 -14z"/>
<path d="M2091 5245 c-2 -21 49 -182 89 -279 180 -443 490 -802 955 -1108 316
-207 577 -347 1115 -598 411 -191 910 -355 910 -299 0 5 -5 7 -10 4 -18 -11
-155 16 -139 27 10 7 8 8 -7 4 -26 -8 -144 28 -123 37 7 4 5 5 -6 2 -11 -2
-51 7 -90 21 -38 14 -101 36 -140 49 -38 13 -92 33 -120 46 -27 12 -57 23 -65
25 -8 2 -37 13 -63 26 -44 20 -47 23 -31 35 10 7 13 13 8 13 -6 0 -15 -5 -20
-10 -12 -12 -226 79 -218 92 3 5 2 8 -3 7 -8 -2 -30 6 -106 39 -23 11 -50 22
-60 25 -11 4 -15 12 -11 18 4 8 3 9 -4 5 -22 -13 -530 252 -524 274 1 6 -2 9
-7 6 -14 -9 -42 5 -35 16 4 6 1 8 -7 6 -8 -3 -33 8 -56 23 -23 16 -44 29 -48
29 -3 0 -40 23 -82 51 -69 47 -75 53 -58 65 16 12 16 13 -3 11 -11 0 -18 -5
-16 -9 9 -15 -24 -8 -37 8 -7 8 -25 22 -41 30 -17 9 -26 20 -22 26 4 7 3 8 -5
4 -6 -4 -32 9 -59 31 -26 20 -49 39 -52 41 -2 2 2 8 10 13 12 8 10 9 -6 4 -23
-6 -78 30 -69 46 4 5 -2 6 -11 2 -13 -5 -16 -3 -11 10 3 9 1 19 -5 23 -7 4 -8
3 -4 -4 4 -7 3 -12 -2 -12 -15 0 -162 157 -154 164 4 4 0 6 -8 4 -8 -2 -14 3
-12 10 1 8 -2 11 -7 8 -5 -3 -12 1 -15 10 -4 11 -2 15 7 11 8 -3 14 1 14 8 0
10 -5 11 -18 5 -14 -8 -26 0 -64 42 -63 70 -106 134 -97 143 4 5 2 5 -4 2 -23
-13 -243 366 -231 398 3 7 0 15 -7 18 -6 3 -25 42 -40 87 -24 69 -27 84 -15
92 11 8 11 9 -2 5 -13 -4 -20 5 -28 39 -6 25 -8 50 -5 56 4 6 3 8 -4 4 -6 -3
-13 2 -15 11 -3 10 -5 13 -6 8z"/>
<path d="M6950 5216 c0 -2 7 -7 16 -10 8 -3 12 -2 9 4 -6 10 -25 14 -25 6z"/>
<path d="M7740 5205 c-57 -18 -127 -54 -143 -73 -9 -11 -5 -11 15 2 15 10 33
14 39 10 7 -4 9 -3 6 3 -10 16 54 43 136 58 57 10 64 13 32 13 -22 0 -60 -6
-85 -13z"/>
<path d="M3298 5104 c-8 -60 -37 -136 -49 -128 -5 3 -6 -3 -2 -12 4 -12 3 -15
-5 -10 -8 5 -10 1 -5 -10 5 -13 3 -15 -7 -9 -8 5 -11 4 -7 -3 8 -12 -2 -44
-12 -37 -4 2 -8 -2 -8 -9 0 -22 -64 -107 -75 -100 -7 4 -8 2 -4 -5 4 -6 -2
-23 -13 -38 -12 -14 -18 -29 -15 -32 4 -3 9 -1 11 6 2 6 18 31 36 55 60 81 79
112 112 177 37 74 59 146 53 182 -2 15 -6 4 -10 -27z"/>
<path d="M6648 5143 c7 -3 16 -2 19 1 4 3 -2 6 -13 5 -11 0 -14 -3 -6 -6z"/>
<path d="M6270 5061 c0 -11 4 -22 9 -25 4 -3 6 6 3 19 -5 30 -12 33 -12 6z"/>
<path d="M3004 5049 c0 -10 4 -19 8 -19 4 0 8 6 8 14 0 8 -4 17 -8 20 -4 2 -8
-4 -8 -15z"/>
<path d="M7550 5060 c-9 -6 -10 -10 -3 -10 6 0 15 5 18 10 8 12 4 12 -15 0z"/>
<path d="M3246 5032 c-3 -5 1 -9 9 -9 8 0 12 4 9 9 -3 4 -7 8 -9 8 -2 0 -6 -4
-9 -8z"/>
<path d="M6716 5027 c3 -10 9 -15 12 -12 3 3 0 11 -7 18 -10 9 -11 8 -5 -6z"/>
<path d="M2340 5005 c0 -5 5 -17 10 -25 5 -8 10 -10 10 -5 0 6 -5 17 -10 25
-5 8 -10 11 -10 5z"/>
<path d="M3913 4885 c0 -7 6 -11 14 -8 7 3 13 6 13 8 0 2 -6 5 -13 8 -8 3 -14
-1 -14 -8z"/>
<path d="M7867 4879 c7 -7 15 -10 18 -7 3 3 -2 9 -12 12 -14 6 -15 5 -6 -5z"/>
<path d="M6893 4833 c9 -2 25 -2 35 0 9 3 1 5 -18 5 -19 0 -27 -2 -17 -5z"/>
<path d="M7006 4829 c4 -8 -1 -9 -17 -5 -22 6 -23 5 -5 -6 10 -7 40 -28 65
-45 101 -71 128 -83 194 -90 53 -5 80 -1 137 17 39 12 73 27 76 31 3 5 -19 -1
-48 -13 -39 -16 -75 -22 -133 -22 -92 -1 -143 19 -210 81 -22 20 -42 37 -45
37 -3 1 -4 7 -2 14 2 6 -2 12 -8 12 -6 0 -8 -5 -4 -11z"/>
<path d="M7630 4818 c-19 -5 -51 -13 -71 -19 -20 -5 -49 -21 -65 -35 -27 -24
-27 -25 -4 -14 14 7 32 18 40 25 8 6 41 18 73 25 32 7 60 17 63 22 3 4 4 8 2
7 -2 0 -19 -5 -38 -11z"/>
<path d="M7657 4775 c-9 -19 -15 -35 -12 -35 7 0 37 61 33 66 -3 2 -12 -12
-21 -31z"/>
<path d="M6335 4789 c-5 -8 -4 -10 0 -6 5 4 15 -3 22 -15 7 -13 12 -18 13 -12
0 5 -6 18 -13 29 -12 15 -15 16 -22 4z"/>
<path d="M2994 4769 c-4 -7 -3 -9 4 -5 5 3 13 0 15 -6 4 -9 6 -10 6 -1 1 17
-16 25 -25 12z"/>
<path d="M3355 4746 c-54 -17 -96 -40 -118 -64 -17 -19 -17 -19 5 -18 13 1 27
-3 31 -9 5 -6 7 -4 4 5 -2 8 -10 14 -16 13 -6 -2 -11 2 -11 8 0 17 101 58 155
63 64 6 125 -8 199 -45 33 -16 61 -27 64 -25 8 8 -97 56 -155 71 -68 18 -104
18 -158 1z"/>
<path d="M6156 4723 c-4 -5 -413 -10 -909 -13 l-902 -6 902 1 c708 0 905 3
915 13 6 6 10 12 7 12 -3 0 -9 -3 -13 -7z"/>
<path d="M7587 4675 c-31 -36 -68 -64 -108 -83 -51 -25 -56 -29 -31 -28 17 1
27 5 24 10 -3 5 2 6 12 3 9 -4 15 -3 12 2 -3 4 12 17 32 29 21 12 46 30 56 41
10 11 22 18 26 16 4 -3 7 3 6 13 0 9 4 16 11 15 6 -2 11 6 10 17 -1 11 -1 20
-2 20 0 0 -21 -25 -48 -55z"/>
<path d="M6787 4679 c-31 -10 -89 -38 -127 -61 l-70 -42 0 -168 c0 -92 2 -168
4 -168 2 0 25 10 52 22 27 12 72 27 99 34 35 9 42 13 23 13 -15 1 -50 -7 -77
-18 -28 -10 -52 -16 -55 -13 -4 3 -6 1 -6 -5 0 -6 -7 -13 -15 -17 -13 -5 -15
17 -15 155 0 107 3 158 10 154 6 -4 9 -1 8 6 -4 15 160 102 179 95 8 -3 12 -2
9 3 -3 5 13 11 37 14 51 7 130 -10 120 -27 -3 -6 -3 -8 2 -4 4 4 26 -8 49 -26
63 -52 119 -76 204 -87 58 -9 91 -8 135 1 78 16 68 22 -13 9 -117 -19 -233 13
-323 88 -48 40 -103 63 -148 63 -13 -1 -50 -10 -82 -21z"/>
<path d="M3100 4679 c0 -5 7 -12 15 -15 8 -4 12 -11 8 -17 -3 -6 -1 -7 5 -3 6
4 20 1 31 -6 15 -9 25 -9 43 0 l23 11 -25 -5 c-17 -3 -38 3 -63 20 -20 14 -37
21 -37 15z"/>
<path d="M4128 4683 c7 -3 16 -2 19 1 4 3 -2 6 -13 5 -11 0 -14 -3 -6 -6z"/>
<path d="M3341 4664 c0 -11 3 -14 6 -6 3 7 2 16 -1 19 -3 4 -6 -2 -5 -13z"/>
<path d="M6845 4670 c-16 -7 -17 -9 -3 -9 9 -1 20 4 23 9 7 11 7 11 -20 0z"/>
<path d="M3376 4643 c-6 -14 -5 -15 5 -6 7 7 10 15 7 18 -3 3 -9 -2 -12 -12z"/>
<path d="M3650 4650 c-9 -6 -10 -10 -3 -10 9 0 12 -61 13 -239 0 -239 8 -321
37 -393 24 -60 24 -40 1 27 -19 54 -22 89 -27 342 -5 248 -8 281 -21 273z"/>
<path d="M5471 4644 c0 -11 3 -14 6 -6 3 7 2 16 -1 19 -3 4 -6 -2 -5 -13z"/>
<path d="M3030 4641 c0 -5 5 -13 10 -16 6 -3 10 -2 10 4 0 5 -4 13 -10 16 -5
3 -10 2 -10 -4z"/>
<path d="M6846 4637 c3 -10 9 -15 12 -12 3 3 0 11 -7 18 -10 9 -11 8 -5 -6z"/>
<path d="M2486 4627 c3 -10 9 -15 12 -12 3 3 0 11 -7 18 -10 9 -11 8 -5 -6z"/>
<path d="M3470 4620 c0 -5 5 -10 11 -10 5 0 7 5 4 10 -3 6 -8 10 -11 10 -2 0
-4 -4 -4 -10z"/>
<path d="M2782 4600 c0 -14 2 -19 5 -12 2 6 2 18 0 25 -3 6 -5 1 -5 -13z"/>
<path d="M6807 4599 c4 -13 8 -18 11 -10 2 7 -1 18 -6 23 -8 8 -9 4 -5 -13z"/>
<path d="M6201 4594 c0 -11 3 -14 6 -6 3 7 2 16 -1 19 -3 4 -6 -2 -5 -13z"/>
<path d="M5075 4531 c-16 -4 -40 -13 -51 -19 -12 -6 -25 -8 -29 -4 -5 4 -5 1
0 -7 5 -9 3 -12 -6 -9 -8 3 -13 11 -11 17 1 7 -2 10 -7 7 -5 -4 -8 -15 -6 -26
2 -10 -3 -24 -11 -31 -27 -22 -56 -90 -61 -145 -10 -93 46 -192 132 -233 34
-16 145 -31 145 -19 0 4 -20 8 -46 8 -168 0 -274 184 -195 339 39 75 136 125
229 116 38 -3 41 -3 17 4 -37 11 -61 11 -100 2z"/>
<path d="M5210 4517 c0 -2 20 -17 45 -33 45 -28 95 -105 95 -146 0 -11 7 -18
18 -18 9 0 13 4 7 8 -15 10 -35 73 -28 85 3 6 1 7 -5 3 -7 -4 -12 -1 -12 8 0
8 -16 28 -34 43 -29 22 -33 30 -23 43 10 13 10 13 -5 2 -13 -10 -22 -11 -37
-2 -12 6 -21 9 -21 7z"/>
<path d="M6961 4494 c0 -11 3 -14 6 -6 3 7 2 16 -1 19 -3 4 -6 -2 -5 -13z"/>
<path d="M6165 4480 c-3 -5 -1 -10 4 -10 6 0 11 5 11 10 0 6 -2 10 -4 10 -3 0
-8 -4 -11 -10z"/>
<path d="M7643 4465 c-3 -9 -3 -18 -1 -21 3 -3 8 4 11 16 6 23 -1 27 -10 5z"/>
<path d="M4821 4444 c0 -11 3 -14 6 -6 3 7 2 16 -1 19 -3 4 -6 -2 -5 -13z"/>
<path d="M6121 4444 c0 -11 3 -14 6 -6 3 7 2 16 -1 19 -3 4 -6 -2 -5 -13z"/>
<path d="M4885 4420 c-3 -6 1 -7 9 -4 18 7 21 14 7 14 -6 0 -13 -4 -16 -10z"/>
<path d="M7548 4413 c7 -3 16 -2 19 1 4 3 -2 6 -13 5 -11 0 -14 -3 -6 -6z"/>
<path d="M2606 4393 c-6 -14 -5 -15 5 -6 7 7 10 15 7 18 -3 3 -9 -2 -12 -12z"/>
<path d="M5370 4399 c0 -5 5 -7 10 -4 6 3 10 8 10 11 0 2 -4 4 -10 4 -5 0 -10
-5 -10 -11z"/>
<path d="M2574 4389 c-3 -6 -2 -15 3 -20 5 -5 9 -1 9 11 0 23 -2 24 -12 9z"/>
<path d="M4140 4390 c0 -5 5 -10 11 -10 5 0 7 5 4 10 -3 6 -8 10 -11 10 -2 0
-4 -4 -4 -10z"/>
<path d="M6300 4390 c0 -5 5 -10 11 -10 5 0 7 5 4 10 -3 6 -8 10 -11 10 -2 0
-4 -4 -4 -10z"/>
<path d="M4240 4351 c0 -6 4 -13 10 -16 6 -3 7 1 4 9 -7 18 -14 21 -14 7z"/>
<path d="M6365 4310 c3 -5 8 -10 11 -10 2 0 4 5 4 10 0 6 -5 10 -11 10 -5 0
-7 -4 -4 -10z"/>
<path d="M6612 4300 c0 -14 2 -19 5 -12 2 6 2 18 0 25 -3 6 -5 1 -5 -13z"/>
<path d="M6870 4305 c41 -7 78 -11 82 -7 4 4 0 8 -10 9 -9 0 -46 3 -82 7 l-65
6 75 -15z"/>
<path d="M7000 4297 c0 -10 8 -17 18 -17 9 0 13 4 7 8 -5 4 -13 11 -17 16 -5
5 -8 2 -8 -7z"/>
<path d="M6972 4291 c-7 -4 16 -21 61 -44 57 -30 82 -37 122 -36 l50 2 -61 7
c-58 6 -125 36 -150 66 -5 7 -15 9 -22 5z"/>
<path d="M5351 4275 c-1 -11 -4 -31 -7 -45 -5 -22 -4 -23 6 -7 6 10 9 30 7 45
-3 18 -5 20 -6 7z"/>
<path d="M4640 4246 c0 -2 7 -7 16 -10 8 -3 12 -2 9 4 -6 10 -25 14 -25 6z"/>
<path d="M5319 4178 c-5 -13 -33 -40 -61 -60 -50 -38 -59 -52 -13 -22 13 9 28
13 32 11 5 -3 17 2 28 10 16 13 17 15 3 10 -10 -4 -18 -2 -18 3 0 6 4 10 10
10 5 0 16 14 25 30 9 17 13 30 10 30 -3 0 -10 -10 -16 -22z"/>
<path d="M7125 4153 c-59 -41 -61 -43 -48 -43 6 0 31 16 56 35 41 32 47 33 61
19 9 -8 16 -11 16 -5 0 6 -8 14 -17 19 -14 7 -31 1 -68 -25z"/>
<path d="M3175 4160 c-3 -6 1 -7 9 -4 18 7 21 14 7 14 -6 0 -13 -4 -16 -10z"/>
<path d="M4382 4154 c-7 -8 -8 -14 -3 -14 10 0 25 19 20 25 -2 1 -10 -3 -17
-11z"/>
<path d="M6770 4164 c-50 -10 -200 -87 -200 -103 0 -12 2 -13 9 -3 12 19 61
43 74 35 6 -4 7 -1 2 7 -6 10 -4 12 9 7 9 -4 15 -3 12 2 -3 5 1 12 10 15 24 9
36 7 28 -6 -4 -7 -3 -8 5 -4 6 4 9 11 6 16 -8 14 94 33 142 26 46 -6 123 -43
123 -58 0 -5 5 -6 11 -2 7 4 -10 19 -40 36 -52 30 -131 43 -191 32z"/>
<path d="M2810 4156 c0 -2 8 -10 18 -17 15 -13 16 -12 3 4 -13 16 -21 21 -21
13z"/>
<path d="M3406 4143 c-6 -14 -5 -15 5 -6 7 7 10 15 7 18 -3 3 -9 -2 -12 -12z"/>
<path d="M3541 4144 c0 -11 3 -14 6 -6 3 7 2 16 -1 19 -3 4 -6 -2 -5 -13z"/>
<path d="M7355 4149 c-6 -8 -4 -10 5 -4 10 6 12 4 6 -11 -6 -15 -5 -17 5 -6 9
9 10 15 2 23 -8 8 -13 7 -18 -2z"/>
<path d="M7160 4139 c0 -5 5 -7 10 -4 6 3 10 8 10 11 0 2 -4 4 -10 4 -5 0 -10
-5 -10 -11z"/>
<path d="M6251 4114 c0 -11 3 -14 6 -6 3 7 2 16 -1 19 -3 4 -6 -2 -5 -13z"/>
<path d="M4970 4090 c6 -11 13 -20 16 -20 2 0 0 9 -6 20 -6 11 -13 20 -16 20
-2 0 0 -9 6 -20z"/>
<path d="M5330 4101 c0 -6 4 -13 10 -16 6 -3 7 1 4 9 -7 18 -14 21 -14 7z"/>
<path d="M7046 4102 c-3 -5 1 -9 9 -9 8 0 12 4 9 9 -3 4 -7 8 -9 8 -2 0 -6 -4
-9 -8z"/>
<path d="M7185 4101 c-3 -5 -2 -12 3 -15 5 -3 9 1 9 9 0 17 -3 19 -12 6z"/>
<path d="M6330 4096 c0 -2 7 -6 15 -10 8 -3 15 -1 15 4 0 6 -7 10 -15 10 -8 0
-15 -2 -15 -4z"/>
<path d="M2935 4049 c-4 -6 -5 -12 -2 -15 2 -3 7 2 10 11 7 17 1 20 -8 4z"/>
<path d="M7215 4040 c-3 -5 -1 -10 4 -10 6 0 11 5 11 10 0 6 -2 10 -4 10 -3 0
-8 -4 -11 -10z"/>
<path d="M3971 4024 c0 -11 3 -14 6 -6 3 7 2 16 -1 19 -3 4 -6 -2 -5 -13z"/>
<path d="M6548 3993 c-44 -124 -188 -239 -386 -307 -37 -13 -89 -32 -117 -42
-53 -19 -201 -26 -280 -12 l-40 7 40 -14 c61 -21 192 -19 261 5 183 60 243 83
300 115 66 37 79 42 68 23 -4 -7 -3 -8 4 -4 6 4 8 14 5 23 -5 13 -2 15 11 10
10 -4 15 -3 11 4 -4 5 13 27 37 49 46 40 112 149 106 176 -2 9 -11 -6 -20 -33z"/>
<path d="M6255 4010 c-3 -6 1 -7 9 -4 18 7 21 14 7 14 -6 0 -13 -4 -16 -10z"/>
<path d="M5382 3980 c0 -14 2 -19 5 -12 2 6 2 18 0 25 -3 6 -5 1 -5 -13z"/>
<path d="M7129 3973 c-13 -16 -12 -17 4 -4 9 7 17 15 17 17 0 8 -8 3 -21 -13z"/>
<path d="M7174 3982 c3 -5 0 -13 -6 -15 -9 -4 -10 -6 -1 -6 17 -1 25 16 12 25
-7 4 -9 3 -5 -4z"/>
<path d="M5631 3964 c0 -11 3 -14 6 -6 3 7 2 16 -1 19 -3 4 -6 -2 -5 -13z"/>
<path d="M3720 3953 c0 -6 5 -15 10 -18 6 -4 8 -10 5 -14 -2 -5 7 -18 20 -31
13 -13 22 -27 18 -33 -3 -6 -1 -7 5 -3 11 7 17 -7 12 -29 -1 -5 2 -7 6 -3 12
12 33 -12 27 -29 -5 -12 -2 -15 9 -11 16 7 71 -24 63 -35 -3 -4 -2 -5 1 -2 4
2 24 -5 44 -15 73 -37 126 -51 210 -55 l85 -4 -80 8 c-82 8 -188 44 -255 86
-45 29 -125 111 -155 161 -14 21 -25 34 -25 27z"/>
<path d="M6720 3920 c0 -5 5 -10 11 -10 5 0 7 5 4 10 -3 6 -8 10 -11 10 -2 0
-4 -4 -4 -10z"/>
<path d="M3975 3910 c7 -11 85 -53 90 -48 2 2 -19 16 -47 31 -27 15 -47 23
-43 17z"/>
<path d="M7060 3900 c-9 -6 -10 -10 -3 -10 6 0 15 5 18 10 8 12 4 12 -15 0z"/>
<path d="M4080 3858 c0 -5 451 -7 1003 -6 551 2 840 4 642 5 -946 7 -1645 7
-1645 1z"/>
<path d="M6115 3860 l-30 -8 35 -1 c19 0 42 4 50 9 12 8 11 10 -5 9 -11 -1
-33 -5 -50 -9z"/>
<path d="M6605 3840 c3 -5 8 -10 11 -10 2 0 4 5 4 10 0 6 -5 10 -11 10 -5 0
-7 -4 -4 -10z"/>
<path d="M3764 3780 c0 -13 4 -16 10 -10 7 7 7 13 0 20 -6 6 -10 3 -10 -10z"/>
<path d="M6424 3768 c-4 -7 -4 -10 1 -6 4 4 15 2 24 -5 14 -11 14 -10 2 6 -16
20 -18 21 -27 5z"/>
<path d="M5281 3710 c-24 -5 -102 -28 -175 -51 -72 -23 -157 -44 -189 -47 -32
-2 -60 -9 -63 -13 -10 -17 112 3 199 32 49 16 96 29 106 29 9 0 21 4 27 9 13
13 146 41 195 41 23 0 70 -5 104 -12 50 -9 62 -14 58 -27 -3 -11 -2 -12 4 -4
10 14 40 10 117 -12 27 -8 52 -13 54 -10 3 3 3 5 1 5 -2 0 -51 14 -109 30
-115 34 -252 46 -329 30z"/>
<path d="M4312 3698 c-104 -14 -82 -21 27 -9 51 5 97 8 104 6 28 -8 101 -14
82 -6 -36 15 -138 19 -213 9z"/>
<path d="M3970 3695 c0 -5 5 -17 10 -25 5 -8 10 -10 10 -5 0 6 -5 17 -10 25
-5 8 -10 11 -10 5z"/>
<path d="M4552 3675 c2 -3 35 -16 71 -28 37 -13 64 -27 60 -32 -5 -4 -3 -5 4
-2 6 4 41 1 77 -7 37 -7 68 -10 71 -6 2 4 -19 10 -48 13 -29 4 -92 20 -141 37
-92 31 -103 34 -94 25z"/>
<path d="M6365 3669 c-4 -6 -5 -12 -2 -15 2 -3 7 2 10 11 7 17 1 20 -8 4z"/>
<path d="M6695 3637 c-44 -23 -82 -45 -85 -48 -13 -16 -92 -49 -102 -43 -7 5
-8 3 -3 -6 6 -10 4 -12 -11 -6 -10 4 -15 4 -11 0 10 -10 -63 -46 -80 -40 -8 3
-11 2 -8 -4 6 -9 -25 -30 -44 -30 -6 0 -11 7 -11 16 0 11 5 14 18 9 12 -4 14
-3 6 5 -6 6 -18 8 -27 4 -14 -5 -15 -10 -5 -27 6 -12 12 -23 13 -24 4 -6 410
210 430 228 16 15 2 10 -80 -34z"/>
<path d="M3756 3613 c-6 -14 -5 -15 5 -6 7 7 10 15 7 18 -3 3 -9 -2 -12 -12z"/>
<path d="M4620 3626 c0 -2 7 -7 16 -10 8 -3 12 -2 9 4 -6 10 -25 14 -25 6z"/>
<path d="M5455 3571 c-3 -5 -2 -12 3 -15 5 -3 9 1 9 9 0 17 -3 19 -12 6z"/>
<path d="M5495 3561 c-3 -5 -2 -12 3 -15 5 -3 9 1 9 9 0 17 -3 19 -12 6z"/>
<path d="M5158 3533 c7 -3 16 -2 19 1 4 3 -2 6 -13 5 -11 0 -14 -3 -6 -6z"/>
<path d="M5565 3489 c-4 -6 -5 -12 -2 -15 2 -3 7 2 10 11 7 17 1 20 -8 4z"/>
<path d="M3910 3480 c-12 -7 -10 -9 7 -7 12 0 19 5 17 9 -6 10 -6 10 -24 -2z"/>
<path d="M6101 3434 c0 -11 3 -14 6 -6 3 7 2 16 -1 19 -3 4 -6 -2 -5 -13z"/>
<path d="M5608 3428 c5 -5 16 -8 23 -6 8 3 3 7 -10 11 -17 4 -21 3 -13 -5z"/>
<path d="M6285 3424 c-11 -8 -28 -13 -38 -10 -10 2 -14 0 -10 -7 4 -7 0 -8
-13 -3 -10 4 -15 4 -11 -1 4 -4 -20 -22 -55 -40 -103 -53 -52 -36 67 22 61 29
103 54 95 54 -8 0 -24 -6 -35 -15z"/>
<path d="M5640 3406 c0 -2 7 -7 16 -10 8 -3 12 -2 9 4 -6 10 -25 14 -25 6z"/>
<path d="M4950 3389 c0 -5 5 -7 10 -4 6 3 10 8 10 11 0 2 -4 4 -10 4 -5 0 -10
-5 -10 -11z"/>
<path d="M4207 3329 c7 -7 15 -10 18 -7 3 3 -2 9 -12 12 -14 6 -15 5 -6 -5z"/>
<path d="M6005 3295 c-44 -19 -84 -35 -88 -35 -5 0 -15 -7 -23 -15 -9 -8 -14
-15 -12 -15 7 0 200 88 205 94 11 10 0 7 -82 -29z"/>
<path d="M5335 3260 c-3 -5 -1 -10 4 -10 6 0 11 5 11 10 0 6 -2 10 -4 10 -3 0
-8 -4 -11 -10z"/>
<path d="M4571 3214 c0 -11 3 -14 6 -6 3 7 2 16 -1 19 -3 4 -6 -2 -5 -13z"/>
<path d="M5760 3187 c-52 -24 -104 -47 -114 -50 -10 -4 -17 -10 -14 -12 4 -5
225 89 236 100 14 13 -21 1 -108 -38z"/>
<path d="M5590 3110 c-8 -5 -10 -10 -5 -10 6 0 17 5 25 10 8 5 11 10 5 10 -5
0 -17 -5 -25 -10z"/>
<path d="M5540 3090 c-8 -5 -10 -10 -5 -10 6 0 17 5 25 10 8 5 11 10 5 10 -5
0 -17 -5 -25 -10z"/>
<path d="M7237 3082 c-18 -4 -97 -148 -97 -177 0 -12 15 -15 78 -15 42 0 82 4
88 8 6 4 43 45 83 92 67 77 71 85 53 93 -12 6 -49 5 -93 -1 l-74 -10 83 2 c58
1 82 -2 82 -10 0 -7 -3 -14 -8 -16 -4 -1 -29 -29 -56 -60 -27 -31 -54 -56 -60
-55 -5 1 -10 -5 -11 -13 0 -21 -146 -22 -153 -1 -3 9 0 11 8 6 9 -5 11 -4 6 3
-13 22 5 34 21 15 13 -17 13 -16 4 4 -11 22 2 70 22 84 5 3 8 9 8 13 -3 20 2
25 27 28 15 2 23 6 17 9 -5 3 -18 4 -28 1z"/>
<path d="M5490 3073 c-8 -3 -55 -21 -103 -39 -48 -19 -92 -32 -97 -29 -4 3
-10 1 -12 -3 -1 -5 -28 -16 -58 -24 -30 -9 -45 -17 -33 -17 21 -1 230 69 303
102 33 14 33 22 0 10z"/>
<path d="M4978 3023 c7 -3 16 -2 19 1 4 3 -2 6 -13 5 -11 0 -14 -3 -6 -6z"/>
<path d="M5265 3019 c-4 -6 -4 -13 -1 -16 3 -4 6 -1 6 5 0 6 8 13 18 15 15 4
15 5 0 6 -9 0 -20 -4 -23 -10z"/>
<path d="M2470 2794 c98 -16 188 -38 214 -51 40 -20 77 -54 70 -64 -3 -5 2 -6
10 -3 21 8 67 -75 69 -128 l2 -43 -82 -3 -81 -3 -31 44 c-24 35 -27 47 -18 57
9 10 9 11 -2 5 -11 -6 -13 -3 -9 13 4 13 2 20 -4 16 -5 -3 -8 -15 -5 -25 6
-23 4 -23 -34 -3 -17 8 -42 13 -57 11 -25 -4 -25 -4 4 -6 41 -1 93 -37 123
-84 l25 -38 90 3 c88 3 91 4 94 28 9 63 -49 162 -125 210 -57 37 -129 58 -213
63 -36 3 -54 3 -40 1z"/>
<path d="M2320 2770 c-30 -11 -55 -20 -57 -20 -7 0 -100 -87 -111 -104 -13
-20 -12 -19 6 1 15 17 22 19 31 10 9 -9 11 -8 5 8 -6 18 -4 17 22 -5 20 -18
24 -19 14 -5 -8 11 -19 23 -24 27 -11 8 83 70 95 62 5 -3 9 -1 9 4 0 8 42 22
105 36 13 2 9 4 -10 4 -16 1 -55 -8 -85 -18z"/>
<path d="M3023 2783 c-10 -4 -12 -75 -11 -316 l3 -312 2 308 3 307 45 0 c24 0
47 5 50 10 6 10 -69 13 -92 3z"/>
<path d="M3127 2776 c-4 -10 -1 -13 8 -9 8 3 12 9 9 14 -7 12 -11 11 -17 -5z"/>
<path d="M3170 2781 c0 -6 4 -11 10 -11 6 0 11 -109 13 -292 l2 -293 3 291 c2
249 0 293 -13 304 -10 9 -15 9 -15 1z"/>
<path d="M3578 2779 c-17 -9 -18 -34 -18 -299 0 -180 -4 -299 -11 -317 -42
-112 -210 -143 -302 -55 -16 16 -26 20 -22 11 4 -10 0 -19 -9 -22 -9 -4 -16
-1 -16 5 0 6 -3 9 -6 5 -13 -12 7 -27 25 -18 12 7 26 4 46 -9 16 -10 50 -24
77 -30 39 -10 56 -9 95 4 25 9 55 23 64 32 16 14 21 15 36 3 15 -11 16 -11 6
1 -16 17 -17 31 -2 28 19 -5 21 33 26 346 3 268 6 301 21 312 20 16 14 18 -10
3z"/>
<path d="M3610 2780 c0 -5 7 -10 15 -10 8 0 15 5 15 10 0 6 -7 10 -15 10 -8 0
-15 -4 -15 -10z"/>
<path d="M3656 2779 c3 -6 22 -9 41 -7 29 2 37 -1 44 -20 5 -12 5 -22 1 -22
-4 0 -6 -132 -5 -293 2 -293 -1 -351 -19 -325 -6 8 -7 1 -3 -21 6 -26 4 -32
-5 -26 -9 5 -11 4 -6 -3 7 -12 -39 -90 -50 -84 -3 2 -15 -10 -27 -25 l-22 -28
38 29 c43 33 80 92 96 151 11 40 17 662 7 672 -10 11 -96 12 -90 2z"/>
<path d="M4176 2777 c-9 -7 -32 -55 -52 -107 -70 -185 -134 -373 -130 -377 2
-3 7 5 11 16 3 12 9 19 13 17 4 -2 8 10 9 28 2 39 47 149 57 139 4 -4 4 0 1 9
-4 9 13 65 36 124 24 60 44 115 45 123 4 22 25 30 50 21 14 -6 26 -5 29 0 6 9
119 5 137 -6 7 -4 5 -9 -3 -15 -11 -7 -11 -9 -1 -9 7 0 10 -5 6 -12 -4 -6 -3
-8 3 -5 6 4 17 -14 26 -41 9 -26 25 -72 37 -102 53 -136 79 -221 74 -237 -5
-15 -4 -16 6 -3 10 13 11 11 7 -8 -3 -12 -2 -20 2 -17 4 2 13 -10 19 -28 6
-18 29 -83 51 -146 22 -62 38 -118 34 -125 -3 -6 -2 -8 2 -3 8 7 30 -41 42
-91 5 -22 4 -22 -85 -21 l-91 1 -26 72 c-15 39 -28 77 -31 84 -2 9 -45 11
-176 10 l-173 -2 170 -4 170 -3 24 -72 c13 -40 28 -78 34 -84 14 -19 186 -18
193 1 5 14 -5 45 -119 361 -134 370 -188 509 -199 516 -19 12 -185 8 -202 -4z"/>
<path d="M4850 2781 l-25 -7 -3 -429 c-1 -236 0 -426 3 -424 3 3 7 130 9 282
2 151 7 280 11 286 3 6 1 11 -4 11 -14 0 -14 37 -1 45 6 4 7 12 3 18 -11 17
-11 60 0 75 6 8 6 12 -1 12 -15 0 -13 70 2 89 8 11 8 13 -1 7 -7 -4 -13 -3
-13 3 0 14 13 20 49 23 18 1 35 6 37 10 6 9 -31 9 -66 -1z"/>
<path d="M4953 2784 c7 -7 63 -9 305 -13 18 -1 31 -5 28 -10 -4 -5 2 -7 11 -5
22 5 109 -40 106 -54 -2 -6 4 -9 13 -5 11 4 15 0 12 -13 -2 -10 3 -19 11 -19
7 0 24 -20 37 -45 29 -57 31 -45 3 16 -24 50 -99 112 -159 133 -40 14 -379 28
-367 15z"/>
<path d="M5695 2777 c-13 -7 -15 -71 -15 -441 0 -386 2 -435 16 -440 26 -10
357 -7 415 4 126 24 234 102 283 203 76 157 74 342 -7 475 -71 117 -163 181
-294 201 -87 13 -193 14 -193 2 0 -5 42 -9 93 -9 50 0 113 -5 139 -11 61 -14
130 -50 121 -64 -4 -6 -1 -7 6 -2 7 4 20 -1 31 -13 14 -15 16 -22 7 -26 -7 -3
-3 -4 8 -3 11 1 20 -4 20 -13 1 -8 6 -14 12 -13 16 3 78 -122 93 -186 19 -82
2 -270 -23 -254 -6 4 -8 0 -4 -11 9 -22 -52 -138 -67 -129 -6 3 -8 3 -4 -1 10
-11 -29 -49 -86 -85 -78 -49 -163 -62 -371 -59 l-180 3 -3 433 -2 432 72 1
c40 1 79 1 86 0 6 -1 12 2 12 7 0 11 -145 10 -165 -1z"/>
<path d="M5870 2780 c0 -5 5 -10 10 -10 6 0 10 5 10 10 0 6 -4 10 -10 10 -5 0
-10 -4 -10 -10z"/>
<path d="M6610 2783 c-8 -3 -18 -11 -22 -17 -4 -6 -8 -200 -8 -431 0 -314 3
-424 12 -433 16 -16 160 -16 176 0 9 9 12 120 12 440 0 418 0 428 -20 438 -14
7 -26 8 -38 1 -14 -8 -14 -11 -2 -12 8 -1 23 0 33 0 16 2 17 -22 15 -431 l-3
-433 -85 0 -85 0 -2 425 c-2 374 0 426 13 437 9 6 23 9 32 6 10 -4 13 -2 8 5
-8 13 -13 14 -36 5z"/>
<path d="M6660 2780 c0 -5 9 -10 20 -10 11 0 20 5 20 10 0 6 -9 10 -20 10 -11
0 -20 -4 -20 -10z"/>
<path d="M7221 2780 c-18 -10 -156 -379 -146 -388 3 -3 5 0 5 7 0 7 4 10 9 7
5 -3 9 0 8 7 0 6 1 21 2 32 1 17 3 18 12 5 8 -12 9 -11 4 6 -6 22 10 69 32 92
7 7 10 18 7 25 -5 15 51 174 58 161 3 -5 3 -3 1 5 -4 15 14 41 29 41 7 0 7 -4
1 -12 -16 -20 -12 -47 6 -40 10 4 11 7 3 10 -7 2 -12 8 -12 13 0 6 5 7 12 3 7
-5 8 -3 3 6 -6 10 -4 12 9 7 9 -4 15 -3 12 1 -4 6 37 7 119 3 28 -1 47 -35 48
-84 0 -19 3 -24 9 -15 6 9 8 3 5 -17 -2 -16 -2 -23 1 -15 7 22 53 -110 47
-134 -5 -16 -4 -18 4 -7 8 12 11 9 17 -15 4 -16 16 -48 26 -72 11 -25 17 -52
13 -65 -4 -14 -3 -17 2 -10 6 9 13 1 22 -25 7 -20 18 -53 26 -72 56 -143 105
-292 99 -302 -4 -7 -3 -8 4 -4 8 5 12 0 12 -14 0 -20 -4 -21 -87 -18 -64 2
-87 6 -86 16 2 6 -1 12 -5 12 -5 0 -19 30 -32 68 -13 37 -27 69 -31 72 -4 3
-84 4 -177 2 l-170 -3 -12 -49 c-7 -28 -16 -48 -20 -45 -5 3 -6 -5 -3 -17 4
-18 3 -20 -6 -8 -8 12 -10 9 -8 -15 l2 -30 -84 -3 c-46 -2 -88 1 -94 7 -12 12
22 113 36 104 6 -3 7 -1 4 4 -4 6 12 62 34 124 42 117 63 196 35 129 -44 -104
-127 -352 -122 -365 4 -12 24 -15 95 -15 105 0 105 0 136 108 l18 62 166 0
166 0 30 -83 30 -82 98 -3 c115 -3 114 -6 68 116 -16 42 -59 160 -96 262 -153
427 -186 508 -212 515 -32 8 -168 4 -182 -5z"/>
<path d="M3685 2750 c-3 -6 1 -7 9 -4 18 7 21 14 7 14 -6 0 -13 -4 -16 -10z"/>
<path d="M5701 2734 c0 -11 3 -14 6 -6 3 7 2 16 -1 19 -3 4 -6 -2 -5 -13z"/>
<path d="M7376 2735 c-3 -8 -1 -15 4 -15 6 0 10 7 10 15 0 8 -2 15 -4 15 -2 0
-6 -7 -10 -15z"/>
<path d="M5221 2714 c0 -11 3 -14 6 -6 3 7 2 16 -1 19 -3 4 -6 -2 -5 -13z"/>
<path d="M5372 2678 c-7 -7 -12 -17 -12 -22 0 -6 5 -3 11 7 10 18 12 18 32 0
l22 -18 -19 23 c-22 26 -19 25 -34 10z"/>
<path d="M5221 2664 c0 -11 3 -14 6 -6 3 7 2 16 -1 19 -3 4 -6 -2 -5 -13z"/>
<path d="M2733 2655 c0 -8 4 -12 9 -9 5 3 6 10 3 15 -9 13 -12 11 -12 -6z"/>
<path d="M5950 2640 c0 -5 5 -10 11 -10 5 0 7 5 4 10 -3 6 -8 10 -11 10 -2 0
-4 -4 -4 -10z"/>
<path d="M5284 2627 c-4 -11 -33 -13 -138 -9 -130 4 -134 4 -146 -18 -6 -12
-9 -24 -6 -28 3 -3 7 1 8 9 1 8 5 -35 8 -96 l7 -110 -1 118 -1 117 100 0 c153
0 200 -33 192 -133 -3 -30 -1 -44 4 -35 5 7 8 36 7 65 -2 38 -8 56 -24 70 -19
16 -20 20 -6 41 8 12 11 22 8 22 -4 0 -9 -6 -12 -13z"/>
<path d="M5315 2629 c-4 -6 -5 -12 -2 -15 2 -3 7 2 10 11 7 17 1 20 -8 4z"/>
<path d="M5840 2630 c8 -5 20 -10 25 -10 6 0 3 5 -5 10 -8 5 -19 10 -25 10 -5
0 -3 -5 5 -10z"/>
<path d="M2396 2619 c2 -4 -9 -12 -25 -19 -16 -6 -37 -20 -46 -30 -9 -10 -24
-16 -33 -13 -14 4 -14 3 -3 -5 7 -5 10 -15 6 -22 -6 -9 -9 -9 -15 0 -5 8 -9 7
-13 -5 -4 -9 -3 -13 3 -10 13 8 13 8 -10 -53 -11 -29 -20 -71 -19 -95 1 -39 2
-37 13 23 7 36 19 81 28 100 21 47 74 95 123 110 78 24 82 27 34 26 -26 0 -45
-4 -43 -7z"/>
<path d="M5440 2621 c0 -6 4 -13 10 -16 6 -3 7 1 4 9 -7 18 -14 21 -14 7z"/>
<path d="M2110 2588 c-11 -18 -30 -62 -41 -98 -35 -110 -26 -324 17 -376 9
-11 12 -13 9 -6 -19 36 -37 146 -37 223 0 95 20 180 58 247 29 49 23 58 -6 10z"/>
<path d="M2330 2610 c0 -5 5 -10 11 -10 5 0 7 5 4 10 -3 6 -8 10 -11 10 -2 0
-4 -4 -4 -10z"/>
<path d="M5858 2341 c-2 -148 0 -267 5 -264 4 2 7 121 7 265 l0 260 108 -4
c128 -4 170 -21 220 -91 65 -91 67 -234 5 -337 -21 -33 -43 -53 -82 -72 -48
-25 -66 -28 -149 -28 -53 0 -93 -2 -90 -5 3 -3 47 -6 97 -6 114 0 165 21 221
92 110 139 63 374 -88 440 -34 15 -68 19 -148 19 l-103 0 -3 -269z"/>
<path d="M7170 2581 c0 -6 4 -13 10 -16 6 -3 7 1 4 9 -7 18 -14 21 -14 7z"/>
<path d="M4266 2561 c-4 -5 -1 -11 5 -13 5 -2 35 -74 64 -161 l54 -157 -109 0
c-61 0 -110 4 -110 8 0 5 9 35 20 67 11 32 18 60 16 62 -6 6 -37 -84 -39 -114
l-2 -28 109 -3 c60 -1 113 1 117 5 4 4 -13 67 -38 138 -24 72 -49 144 -54 162
-11 35 -24 49 -33 34z"/>
<path d="M5496 2562 c-4 -7 -2 -20 5 -28 36 -43 -33 -261 -75 -237 -6 3 -8 3
-4 -2 10 -11 -51 -55 -76 -55 -10 0 -17 -3 -13 -6 12 -13 59 8 98 43 52 47 80
103 86 172 6 62 -8 134 -21 113z"/>
<path d="M7295 2530 c-4 -19 -15 -41 -24 -48 -9 -7 -10 -11 -3 -7 16 8 18 18
-28 -119 -22 -66 -36 -124 -32 -128 5 -5 56 -7 113 -5 l104 3 -109 2 c-82 1
-107 5 -104 15 37 100 99 300 95 310 -2 6 -8 -4 -12 -23z"/>
<path d="M7330 2544 c0 -12 90 -285 99 -302 7 -13 9 -11 8 10 -1 14 -6 24 -11
20 -5 -3 -7 5 -4 16 4 12 3 20 -2 17 -10 -6 -21 50 -14 72 4 12 3 14 -3 6 -6
-9 -18 17 -37 77 -24 79 -36 105 -36 84z"/>
<path d="M4231 2464 c-13 -41 -22 -77 -19 -79 2 -3 15 29 28 70 13 41 22 77
19 79 -2 2 -15 -30 -28 -70z"/>
<path d="M4420 2499 c0 -5 5 -7 10 -4 6 3 10 8 10 11 0 2 -4 4 -10 4 -5 0 -10
-5 -10 -11z"/>
<path d="M5260 2397 c-28 -18 -55 -23 -145 -28 l-110 -6 127 0 c70 1 125 3
123 5 -2 2 8 15 23 28 34 30 27 30 -18 1z"/>
<path d="M7051 2348 c-13 -38 -13 -38 -1 -38 6 0 9 3 9 8 -4 22 2 42 11 37 6
-3 10 -2 10 4 0 25 -19 18 -29 -11z"/>
<path d="M2497 2364 c-9 -9 -9 -107 -1 -128 5 -13 22 -16 98 -14 l91 2 -90 5
-90 6 0 60 0 60 175 0 175 0 -1 -110 c-1 -120 -15 -169 -69 -233 -23 -28 -30
-31 -43 -20 -10 8 -13 9 -9 1 4 -6 4 -13 0 -16 -5 -2 -1 -2 7 0 8 2 4 -6 -10
-17 -98 -80 -284 -102 -420 -51 -30 11 -56 19 -58 17 -9 -10 120 -48 179 -53
183 -15 337 61 409 203 23 44 25 61 25 169 l0 120 -181 3 c-99 1 -183 -1 -187
-4z"/>
<path d="M4165 2340 c3 -5 8 -10 11 -10 2 0 4 5 4 10 0 6 -5 10 -11 10 -5 0
-7 -4 -4 -10z"/>
<path d="M2236 2283 c8 -51 33 -131 45 -139 5 -3 7 -10 4 -15 -4 -5 -1 -9 5
-9 7 0 10 -6 7 -14 -3 -8 1 -13 11 -12 9 0 16 -5 14 -12 -1 -8 2 -11 7 -7 6 3
22 -2 36 -11 14 -9 25 -12 25 -8 0 5 -18 20 -39 33 -56 34 -99 112 -100 183
-1 20 -5 39 -10 43 -6 3 -8 -10 -5 -32z"/>
<path d="M5371 2296 c-9 -11 -9 -16 0 -22 7 -4 9 -3 5 4 -3 6 2 15 11 21 10 6
13 11 7 11 -6 0 -17 -6 -23 -14z"/>
<path d="M3952 2197 c-35 -96 -36 -101 -23 -93 5 3 14 27 20 53 10 36 15 44
22 33 8 -12 9 -10 4 6 -9 36 3 55 28 43 19 -9 20 -8 6 3 -9 7 -18 20 -21 28
-2 8 -19 -25 -36 -73z"/>
<path d="M2216 2243 c-6 -14 -5 -15 5 -6 7 7 10 15 7 18 -3 3 -9 -2 -12 -12z"/>
<path d="M7078 2243 c7 -3 16 -2 19 1 4 3 -2 6 -13 5 -11 0 -14 -3 -6 -6z"/>
<path d="M2181 2204 c0 -11 3 -14 6 -6 3 7 2 16 -1 19 -3 4 -6 -2 -5 -13z"/>
<path d="M5008 2067 c2 -115 0 -152 -10 -158 -19 -12 -151 -11 -143 1 3 6 -1
7 -9 4 -34 -13 -1 -24 73 -24 46 0 82 5 89 12 13 13 18 303 5 311 -5 3 -7 -63
-5 -146z"/>
<path d="M5336 2212 c-3 -5 1 -9 9 -9 8 0 12 4 9 9 -3 4 -7 8 -9 8 -2 0 -6 -4
-9 -8z"/>
<path d="M2677 2183 c-9 -43 -70 -109 -114 -124 -19 -6 -64 -9 -99 -7 -46 3
-59 1 -47 -6 45 -25 194 5 218 44 4 6 11 7 17 4 6 -4 8 -2 4 4 -3 6 3 26 15
46 11 19 19 43 17 53 -3 12 -6 7 -11 -14z"/>
<path d="M5087 2203 l62 -4 32 -52 c18 -29 43 -70 55 -92 12 -22 37 -67 56
-100 l34 -60 97 -3 c77 -2 97 0 97 11 0 25 -148 292 -157 283 -3 -2 5 -18 18
-35 22 -30 22 -31 4 -51 -21 -23 -14 -28 8 -5 13 13 20 5 56 -66 23 -44 38
-85 35 -91 -4 -6 -2 -8 3 -5 12 7 25 -17 16 -27 -4 -3 -43 -6 -87 -6 -71 0
-83 3 -94 20 -7 12 -10 26 -6 32 4 6 3 8 -2 5 -6 -3 -27 27 -48 66 -22 40 -56
98 -78 130 l-39 57 -62 -2 -62 -2 62 -3z"/>
<path d="M3203 2158 c1 -15 6 -23 11 -18 4 4 4 16 -2 26 -9 16 -10 14 -9 -8z"/>
<path d="M7375 2171 c-3 -5 -2 -12 3 -15 5 -3 9 1 9 9 0 17 -3 19 -12 6z"/>
<path d="M7121 2154 c0 -11 3 -14 6 -6 3 7 2 16 -1 19 -3 4 -6 -2 -5 -13z"/>
<path d="M7205 2160 c-3 -6 1 -7 9 -4 18 7 21 14 7 14 -6 0 -13 -4 -16 -10z"/>
<path d="M3024 2118 c11 -86 72 -164 163 -205 76 -35 189 -50 272 -35 73 12
153 42 133 49 -7 3 -19 -1 -27 -7 -8 -7 -22 -10 -30 -6 -9 3 -14 2 -11 -3 3
-5 -22 -14 -56 -21 -49 -11 -78 -11 -144 -2 -132 19 -154 32 -130 71 6 9 0 8
-17 -4 -25 -16 -26 -15 -67 21 -24 22 -39 43 -36 51 3 8 2 11 -4 8 -5 -3 -18
23 -30 57 -15 47 -19 54 -16 26z"/>
<path d="M3975 2100 c-3 -5 -1 -10 4 -10 6 0 11 5 11 10 0 6 -2 10 -4 10 -3 0
-8 -4 -11 -10z"/>
<path d="M2676 2083 c-6 -14 -5 -15 5 -6 7 7 10 15 7 18 -3 3 -9 -2 -12 -12z"/>
<path d="M3635 2090 c3 -5 8 -10 11 -10 2 0 4 5 4 10 0 6 -5 10 -11 10 -5 0
-7 -4 -4 -10z"/>
<path d="M4345 2090 c-16 -7 -17 -9 -3 -9 9 -1 20 4 23 9 7 11 7 11 -20 0z"/>
<path d="M2100 2085 c0 -25 67 -105 115 -137 19 -13 14 -6 -13 19 -23 21 -56
58 -72 83 -17 25 -30 40 -30 35z"/>
<path d="M2126 2078 c3 -5 10 -6 15 -3 13 9 11 12 -6 12 -8 0 -12 -4 -9 -9z"/>
<path d="M3882 2004 c-17 -47 -28 -92 -25 -100 4 -12 24 -14 102 -12 l96 3 27
78 c15 43 23 75 18 72 -5 -3 -16 -31 -25 -63 -9 -31 -22 -63 -27 -69 -12 -15
-174 -18 -183 -3 -3 5 2 26 10 47 26 61 47 125 42 129 -2 2 -18 -34 -35 -82z"/>
<path d="M7490 2086 c0 -2 7 -7 16 -10 8 -3 12 -2 9 4 -6 10 -25 14 -25 6z"/>
<path d="M2635 2040 c3 -5 8 -10 11 -10 2 0 4 5 4 10 0 6 -5 10 -11 10 -5 0
-7 -4 -4 -10z"/>
<path d="M3285 2040 c-3 -5 -1 -10 4 -10 6 0 11 5 11 10 0 6 -2 10 -4 10 -3 0
-8 -4 -11 -10z"/>
<path d="M6060 2046 c0 -2 7 -6 15 -10 8 -3 15 -1 15 4 0 6 -7 10 -15 10 -8 0
-15 -2 -15 -4z"/>
<path d="M3095 2030 c-3 -5 -1 -10 4 -10 6 0 11 5 11 10 0 6 -2 10 -4 10 -3 0
-8 -4 -11 -10z"/>
<path d="M2545 2020 c3 -5 8 -10 11 -10 2 0 4 5 4 10 0 6 -5 10 -11 10 -5 0
-7 -4 -4 -10z"/>
<path d="M3561 2014 c0 -11 3 -14 6 -6 3 7 2 16 -1 19 -3 4 -6 -2 -5 -13z"/>
<path d="M5836 2002 c-3 -5 1 -9 9 -9 8 0 12 4 9 9 -3 4 -7 8 -9 8 -2 0 -6 -4
-9 -8z"/>
<path d="M6240 1991 c0 -7 -5 -9 -12 -5 -7 5 -8 3 -3 -5 5 -9 10 -10 18 -2 6
6 8 14 4 18 -4 3 -7 1 -7 -6z"/>
<path d="M4550 1951 c0 -6 4 -13 10 -16 6 -3 7 1 4 9 -7 18 -14 21 -14 7z"/>
<path d="M3455 1920 c3 -5 8 -10 11 -10 2 0 4 5 4 10 0 6 -5 10 -11 10 -5 0
-7 -4 -4 -10z"/>
<path d="M4015 1920 c-16 -7 -17 -9 -3 -9 9 -1 20 4 23 9 7 11 7 11 -20 0z"/>
<path d="M2110 1651 c-12 -23 -14 -839 -2 -857 9 -14 42 -26 42 -15 0 5 -9 11
-20 14 -19 5 -20 15 -20 416 0 322 3 411 13 411 8 0 7 4 -3 10 -13 9 -7 14 12
11 4 0 5 6 2 14 -8 20 -11 19 -24 -4z"/>
<path d="M2205 1663 c68 -4 100 -16 89 -34 -3 -5 -1 -8 5 -7 14 4 203 -281
194 -294 -3 -7 -1 -8 5 -4 11 7 17 -6 13 -27 -1 -5 3 -6 7 -3 13 8 85 -111 76
-126 -4 -6 -3 -8 4 -4 14 8 55 -50 46 -66 -5 -10 -4 -10 5 -2 15 14 23 0 -190
321 -83 126 -158 234 -167 241 -10 7 -42 11 -86 10 l-71 -2 70 -3z"/>
<path d="M2681 1656 c-8 -9 -11 -91 -8 -277 l2 -264 3 267 2 268 23 5 c13 4
50 5 82 3 l60 -3 3 -432 2 -433 -64 0 c-36 0 -68 -4 -71 -10 -6 -9 99 -5 133
6 9 3 12 99 12 438 0 386 -2 435 -16 440 -31 12 -151 6 -163 -8z"/>
<path d="M3306 1648 c-17 -26 -156 -399 -219 -588 -9 -25 -31 -89 -51 -144
-40 -110 -43 -131 -20 -140 26 -10 30 -6 9 9 -17 14 -18 19 -6 48 7 17 18 49
23 70 8 29 13 35 20 25 7 -10 8 -8 4 5 -5 15 15 82 67 230 7 20 17 34 20 30 4
-3 7 6 7 21 0 38 142 416 154 409 5 -4 6 -1 1 7 -13 22 17 30 112 30 l92 0 21
-57 c63 -166 88 -242 83 -247 -4 -3 -1 -6 5 -6 7 0 12 2 12 5 0 12 -104 292
-113 303 -6 8 -41 12 -108 12 -91 0 -100 -2 -113 -22z"/>
<path d="M3812 1658 c-16 -16 -16 -150 0 -166 8 -8 52 -12 133 -12 83 0 125
-4 134 -12 11 -11 11 -9 0 9 -7 11 -19 19 -26 16 -7 -3 -13 0 -13 6 0 6 -5 11
-11 11 -5 0 -8 -4 -5 -8 7 -11 -185 -14 -202 -3 -9 5 -12 29 -10 82 l3 74 340
0 340 0 3 -83 3 -83 -113 1 c-62 1 -119 1 -125 1 -7 -1 -13 -10 -13 -22 0 -13
-4 -18 -12 -13 -10 6 -10 4 0 -7 9 -10 12 -91 12 -336 l0 -323 -40 0 c-22 0
-40 -4 -40 -10 0 -14 64 -12 78 2 9 9 12 101 12 355 l0 342 123 3 122 3 3 84
c2 61 -1 87 -10 92 -22 14 -672 11 -686 -3z"/>
<path d="M4644 1655 c-3 -8 -4 -155 -2 -327 4 -295 5 -316 26 -370 21 -51 96
-138 119 -138 5 0 -14 20 -40 45 -30 27 -46 49 -41 56 4 7 3 9 -4 5 -6 -4 -18
15 -29 46 -16 47 -18 88 -18 368 l0 315 80 0 80 0 5 -301 c4 -268 7 -304 22
-321 10 -11 16 -29 13 -41 -2 -13 0 -20 5 -17 4 3 11 -1 13 -7 4 -10 6 -10 6
0 1 6 6 12 12 12 5 0 7 -6 3 -12 -4 -7 -4 -10 0 -6 4 3 23 0 41 -8 42 -17 108
-17 156 0 20 7 44 11 53 10 13 -2 15 1 6 11 -8 10 -5 17 13 31 23 19 27 25 27
45 0 5 3 8 8 6 4 -3 6 109 4 249 -2 201 0 254 10 254 9 0 9 3 -2 10 -13 9 -13
11 0 20 10 6 11 10 3 10 -7 0 -13 11 -13 24 0 21 6 26 43 31 23 4 60 5 82 3
l40 -3 3 -285 c4 -341 1 -371 -41 -441 -57 -94 -147 -143 -286 -153 -69 -5
-96 -16 -40 -16 60 0 152 21 207 47 66 31 115 79 144 141 22 45 23 58 26 370
2 237 0 327 -9 338 -15 18 -149 20 -167 2 -9 -9 -12 -90 -12 -304 0 -285 0
-292 -22 -324 -13 -18 -34 -41 -48 -52 -30 -21 -105 -33 -155 -24 -48 9 -112
68 -125 114 -5 21 -10 155 -10 308 0 196 -3 273 -12 282 -18 18 -167 16 -174
-3z"/>
<path d="M5562 1658 c-18 -18 -17 -864 0 -874 19 -12 137 -11 142 1 2 7 -17 9
-55 5 -33 -3 -66 -2 -74 3 -13 7 -15 65 -15 425 0 312 3 421 12 430 19 19 374
16 452 -4 67 -17 89 -31 79 -47 -4 -6 -1 -7 6 -2 17 10 61 -33 54 -54 -4 -12
-3 -13 5 -3 13 19 49 -68 55 -134 6 -65 -5 -130 -22 -126 -7 1 -9 -2 -6 -8 4
-6 4 -23 0 -38 -5 -20 -8 -23 -16 -11 -6 10 -9 10 -10 2 -4 -34 -6 -38 -17
-35 -7 1 -11 -4 -10 -10 2 -7 -5 -12 -14 -12 -10 1 -15 -2 -12 -8 3 -5 -8 -14
-25 -21 -30 -11 -42 -39 -22 -51 9 -6 111 -180 111 -190 0 -4 -4 -5 -8 -2 -5
3 -9 -1 -9 -9 0 -12 3 -12 16 -2 12 10 14 9 8 -6 -5 -12 -3 -16 5 -11 8 5 9 2
5 -10 -4 -10 -3 -15 3 -11 5 3 15 -6 22 -21 11 -23 10 -28 -7 -41 -18 -14 -18
-15 -2 -9 10 3 21 6 23 6 15 0 -6 49 -72 168 -42 76 -80 141 -85 147 -15 15
-11 22 20 34 38 16 97 78 115 122 52 126 8 295 -97 366 -61 42 -136 53 -347
53 -139 0 -199 -3 -208 -12z"/>
<path d="M6676 1648 c-12 -20 -86 -217 -174 -468 -17 -47 -53 -147 -82 -224
-28 -76 -48 -141 -45 -144 3 -3 5 0 5 8 0 10 4 10 18 -1 15 -13 16 -12 4 3
-11 14 -9 27 10 81 12 36 27 63 32 60 5 -3 6 -2 3 4 -3 5 12 61 35 124 22 63
42 122 45 131 3 10 10 15 16 11 6 -4 7 -1 3 6 -5 7 -3 24 2 39 6 15 38 105 73
199 71 197 60 187 194 181 68 -3 70 -4 84 -35 8 -18 18 -33 23 -33 10 0 -20
62 -36 72 -6 4 -53 8 -103 8 -85 0 -94 -2 -107 -22z"/>
<path d="M7342 1658 c-9 -9 -12 -119 -12 -434 0 -367 2 -423 15 -434 18 -15
508 -22 538 -8 14 7 17 22 17 81 0 40 -4 77 -8 84 -9 14 -372 24 -372 11 0 -5
80 -8 179 -8 177 0 179 0 185 -22 10 -41 7 -125 -6 -134 -7 -5 -130 -7 -273
-4 l-260 5 0 430 0 430 65 3 c35 2 74 1 86 -2 l22 -6 0 -331 c1 -182 3 -334 6
-337 3 -3 6 146 6 331 0 322 -1 337 -19 347 -27 14 -154 13 -169 -2z"/>
<path d="M3340 1630 c-6 -11 -8 -20 -6 -20 3 0 10 9 16 20 6 11 8 20 6 20 -3
0 -10 -9 -16 -20z"/>
<path d="M2265 1630 c-4 -6 -11 -7 -17 -4 -7 4 -8 2 -4 -5 6 -9 11 -9 22 0 14
11 18 19 10 19 -3 0 -8 -5 -11 -10z"/>
<path d="M2825 1620 c-3 -5 -1 -10 4 -10 6 0 11 5 11 10 0 6 -2 10 -4 10 -3 0
-8 -4 -11 -10z"/>
<path d="M2130 1610 c-12 -7 -10 -9 7 -7 12 0 19 5 17 9 -6 10 -6 10 -24 -2z"/>
<path d="M4321 1604 c0 -11 3 -14 6 -6 3 7 2 16 -1 19 -3 4 -6 -2 -5 -13z"/>
<path d="M5866 1603 c-6 -14 -5 -15 5 -6 7 7 10 15 7 18 -3 3 -9 -2 -12 -12z"/>
<path d="M6925 1563 c13 -32 81 -216 110 -296 15 -43 30 -76 32 -73 8 8 -132
386 -143 386 -3 0 -3 -8 1 -17z"/>
<path d="M5920 1539 c0 -5 5 -7 10 -4 6 3 10 8 10 11 0 2 -4 4 -10 4 -5 0 -10
-5 -10 -11z"/>
<path d="M3471 1527 c-8 -10 -7 -14 2 -14 8 0 14 6 14 14 0 7 -1 13 -2 13 -2
0 -8 -6 -14 -13z"/>
<path d="M4159 1523 c-13 -16 -12 -17 4 -4 9 7 17 15 17 17 0 8 -8 3 -21 -13z"/>
<path d="M5850 1501 c124 -7 157 -19 178 -67 16 -33 15 -67 -2 -109 -21 -50
-64 -67 -178 -73 l-97 -5 -4 97 -3 96 0 -97 1 -98 88 -3 c61 -2 86 -6 81 -14
-4 -7 -3 -8 5 -4 6 4 9 11 6 15 -2 5 8 11 24 14 15 3 42 17 58 31 17 14 33 23
36 20 3 -3 4 29 3 70 -1 42 1 77 4 79 3 2 0 2 -7 1 -7 -2 -20 7 -30 19 -25 30
-31 31 -163 33 l-115 1 115 -6z"/>
<path d="M5737 1470 c-3 -11 -1 -20 4 -20 5 0 9 9 9 20 0 11 -2 20 -4 20 -2 0
-6 -9 -9 -20z"/>
<path d="M6635 1470 c3 -5 8 -10 11 -10 2 0 4 5 4 10 0 6 -5 10 -11 10 -5 0
-7 -4 -4 -10z"/>
<path d="M6896 1457 c3 -10 9 -15 12 -12 3 3 0 11 -7 18 -10 9 -11 8 -5 -6z"/>
<path d="M3352 1298 c-29 -90 -52 -170 -52 -178 0 -8 25 61 56 154 30 92 54
172 52 178 -2 5 -27 -64 -56 -154z"/>
<path d="M4060 1252 c0 -118 4 -212 9 -212 10 0 8 407 -2 417 -4 3 -7 -89 -7
-205z"/>
<path d="M3432 1430 c0 -14 2 -19 5 -12 2 6 2 18 0 25 -3 6 -5 1 -5 -13z"/>
<path d="M6719 1276 c-30 -90 -51 -162 -47 -160 9 6 111 314 106 320 -3 2 -29
-70 -59 -160z"/>
<path d="M6801 1425 c0 -5 21 -75 48 -155 33 -98 48 -133 47 -108 0 20 -3 34
-6 31 -2 -2 -10 15 -16 39 -7 24 -22 69 -33 101 -12 33 -19 68 -16 80 5 16 4
18 -3 8 -8 -11 -10 -11 -15 0 -3 8 -6 10 -6 4z"/>
<path d="M4731 1404 c0 -11 3 -14 6 -6 3 7 2 16 -1 19 -3 4 -6 -2 -5 -13z"/>
<path d="M3441 1395 c-2 -17 81 -259 92 -270 7 -7 8 -4 3 10 -4 11 -25 70 -45
130 -46 135 -49 143 -50 130z"/>
<path d="M6671 1374 c0 -11 3 -14 6 -6 3 7 2 16 -1 19 -3 4 -6 -2 -5 -13z"/>
<path d="M2416 1368 c3 -5 10 -6 15 -3 13 9 11 12 -6 12 -8 0 -12 -4 -9 -9z"/>
<path d="M2180 1366 c0 -2 7 -7 16 -10 8 -3 12 -2 9 4 -6 10 -25 14 -25 6z"/>
<path d="M3645 1320 c4 -14 33 -99 66 -189 32 -90 56 -169 52 -175 -3 -6 -2
-7 3 -3 5 5 21 -28 36 -74 29 -87 27 -101 -16 -92 -20 3 -20 3 2 -6 26 -12 52
-5 52 15 0 8 -21 70 -46 137 -25 67 -68 185 -95 262 -28 76 -52 142 -56 145
-3 3 -2 -6 2 -20z"/>
<path d="M7481 1324 c0 -11 3 -14 6 -6 3 7 2 16 -1 19 -3 4 -6 -2 -5 -13z"/>
<path d="M2278 1058 l3 -268 -63 -1 -63 -2 50 -7 c91 -12 84 -33 87 274 2 177
-1 273 -7 273 -6 0 -9 -94 -7 -269z"/>
<path d="M2310 1313 c0 -5 33 -57 73 -114 40 -57 121 -175 180 -261 68 -100
114 -158 125 -158 13 0 14 2 4 9 -11 7 -11 9 2 14 9 4 16 11 16 17 0 6 -7 4
-16 -4 -8 -9 -19 -16 -22 -16 -9 0 -67 93 -64 103 1 4 -3 7 -9 7 -5 0 -7 6 -3
13 4 6 3 9 -1 4 -9 -7 -84 90 -85 110 0 6 -3 13 -8 15 -18 8 -83 109 -76 119
4 7 3 9 -3 6 -11 -7 -28 20 -24 36 1 5 -2 6 -7 3 -5 -3 -25 20 -45 51 -20 31
-37 51 -37 46z"/>
<path d="M6976 1312 c-3 -5 1 -9 9 -9 8 0 15 4 15 9 0 4 -4 8 -9 8 -6 0 -12
-4 -15 -8z"/>
<path d="M6661 1204 c0 -11 3 -14 6 -6 3 7 2 16 -1 19 -3 4 -6 -2 -5 -13z"/>
<path d="M2460 1180 c6 -11 13 -20 16 -20 2 0 0 9 -6 20 -6 11 -13 20 -16 20
-2 0 0 -9 6 -20z"/>
<path d="M2811 1164 c0 -11 3 -14 6 -6 3 7 2 16 -1 19 -3 4 -6 -2 -5 -13z"/>
<path d="M7070 1175 c0 -5 5 -17 10 -25 5 -8 10 -10 10 -5 0 6 -5 17 -10 25
-5 8 -10 11 -10 5z"/>
<path d="M6020 1116 c0 -8 4 -17 9 -20 5 -4 7 3 4 14 -6 23 -13 26 -13 6z"/>
<path d="M7091 1124 c-1 -7 11 -43 25 -80 57 -152 58 -156 38 -171 -10 -7 -13
-13 -7 -13 7 0 15 5 19 12 5 8 12 -1 20 -23 22 -59 22 -59 -76 -59 -98 0 -100
1 -114 73 -2 12 -12 39 -20 60 l-16 37 -178 -2 c-109 -2 -177 -7 -177 -13 -1
-31 -29 -104 -38 -98 -6 3 -7 1 -3 -6 4 -6 4 -20 1 -31 -6 -18 -16 -20 -83
-21 -52 -1 -69 -3 -52 -9 33 -10 122 -1 136 14 5 6 20 44 33 84 l22 72 168 0
167 0 27 -84 c32 -98 36 -101 153 -90 59 5 74 10 74 23 0 9 -22 77 -49 151
-61 167 -70 188 -70 174z"/>
<path d="M3336 1109 c3 -5 46 -9 95 -9 58 0 88 4 84 10 -3 6 -46 10 -96 9 -50
0 -87 -5 -83 -10z"/>
<path d="M6690 1110 c0 -7 36 -10 100 -8 54 1 94 6 87 10 -19 12 -187 10 -187
-2z"/>
<path d="M2677 1099 c7 -7 15 -10 18 -7 3 3 -2 9 -12 12 -14 6 -15 5 -6 -5z"/>
<path d="M5744 1101 c-2 -2 -4 -70 -4 -151 0 -100 -4 -150 -12 -158 -8 -8 -8
-12 -1 -12 19 0 23 29 23 171 l0 139 63 0 c56 0 65 -3 75 -22 6 -13 24 -45 40
-73 16 -27 48 -84 71 -125 23 -41 49 -81 58 -87 10 -8 37 -11 71 -8 83 6 82
20 -1 17 -72 -3 -72 -3 -90 28 -9 18 -14 37 -10 42 3 6 2 8 -4 5 -5 -3 -24 22
-41 56 -18 34 -45 82 -62 106 -16 25 -27 48 -25 52 3 4 -3 10 -13 14 -19 8
-131 12 -138 6z"/>
<path d="M7446 1055 c4 -8 8 -15 10 -15 2 0 4 7 4 15 0 8 -4 15 -10 15 -5 0
-7 -7 -4 -15z"/>
<path d="M4696 1027 c3 -10 9 -15 12 -12 3 3 0 11 -7 18 -10 9 -11 8 -5 -6z"/>
<path d="M3350 1026 c0 -2 7 -9 15 -16 13 -11 14 -10 9 4 -5 14 -24 23 -24 12z"/>
<path d="M4063 920 c1 -60 5 -110 10 -110 4 0 7 50 7 110 0 61 -4 110 -9 110
-5 0 -8 -49 -8 -110z"/>
<path d="M5160 986 c0 -2 8 -10 18 -17 15 -13 16 -12 3 4 -13 16 -21 21 -21
13z"/>
<path d="M3325 960 l-80 -5 -28 -79 c-15 -44 -30 -82 -32 -85 -3 -2 -23 -4
-46 -3 -22 1 -38 -2 -34 -7 8 -13 75 -5 89 11 7 7 22 46 35 85 l22 73 172 2
c143 3 156 4 77 8 -52 3 -131 3 -175 0z"/>
<path d="M3676 913 c-6 -14 -5 -15 5 -6 7 7 10 15 7 18 -3 3 -9 -2 -12 -12z"/>
<path d="M3605 890 c12 -42 43 -110 52 -111 4 0 30 -2 56 -5 33 -3 47 -1 42 6
-4 6 -27 10 -52 9 -49 -3 -57 3 -73 61 -5 19 -15 42 -21 50 -8 12 -9 9 -4 -10z"/>
<path d="M5209 890 c-7 -64 -7 -61 10 -47 9 8 25 20 36 26 19 12 19 12 -2 6
-15 -4 -25 0 -32 12 -8 14 -11 15 -12 3z"/>
<path d="M4775 871 c-3 -5 -2 -12 3 -15 5 -3 9 1 9 9 0 17 -3 19 -12 6z"/>
<path d="M3715 860 c-3 -5 -1 -10 4 -10 6 0 11 5 11 10 0 6 -2 10 -4 10 -3 0
-8 -4 -11 -10z"/>
<path d="M7125 840 c3 -5 8 -10 11 -10 2 0 4 5 4 10 0 6 -5 10 -11 10 -5 0 -7
-4 -4 -10z"/>
<path d="M4814 812 c8 -14 94 -42 125 -41 15 0 1 7 -32 15 -32 7 -67 19 -79
25 -12 6 -18 7 -14 1z"/>
<path d="M4070 789 c0 -8 38 -19 68 -19 41 0 22 18 -23 22 -25 2 -45 0 -45 -3z"/>
<path d="M6370 791 c0 -5 7 -12 16 -15 14 -5 15 -4 4 9 -14 17 -20 19 -20 6z"/>
<path d="M3055 780 c3 -5 10 -10 16 -10 5 0 9 5 9 10 0 6 -7 10 -16 10 -8 0
-12 -4 -9 -10z"/>
</g>
</svg>
